<svg width="21" height="21" viewBox="0 0 21 21" fill="none" xmlns="http://www.w3.org/2000/svg">
<path d="M2.15252 2H6.64247L8.08968 5.61803L5.7648 7.16795C5.4866 7.35342 5.3195 7.66565 5.3195 8C5.32204 8.09363 5.3195 8.001 5.3195 8.001L5.3195 8.00205L5.31951 8.00429L5.31954 8.00933L5.31969 8.02167C5.31983 8.03089 5.32009 8.04208 5.32051 8.05519C5.32135 8.0814 5.32288 8.1153 5.32562 8.15636C5.3311 8.23846 5.34141 8.34944 5.3608 8.48517C5.39956 8.75646 5.47478 9.12811 5.62082 9.56623C5.91405 10.4459 6.49023 11.5849 7.61239 12.7071C8.73456 13.8293 9.87357 14.4054 10.7533 14.6987C11.1914 14.8447 11.563 14.9199 11.8343 14.9587C11.9701 14.9781 12.081 14.9884 12.1631 14.9939C12.2042 14.9966 12.2381 14.9981 12.2643 14.999C12.2774 14.9994 12.2886 14.9997 12.2978 14.9998L12.3102 15L12.3152 15L12.3175 15L12.3185 15C12.3185 15 12.4301 14.9939 12.3195 15C12.6983 15 13.0445 14.786 13.2139 14.4472L13.8836 13.1078L18.3195 13.8471V18.167C16.2084 18.4723 10.5069 18.7732 6.02661 14.2929C1.54631 9.81259 1.84722 4.1111 2.15252 2ZM7.39315 8.48609L9.19908 7.28213C9.98601 6.75751 10.2979 5.75338 9.94663 4.87525L8.49942 1.25722C8.19569 0.497902 7.46028 0 6.64247 0H2.10028C1.19177 0 0.336588 0.631162 0.187443 1.6169C-0.151866 3.8595 -0.613714 10.481 4.61239 15.7071C9.8385 20.9332 16.46 20.4714 18.7026 20.1321C19.6883 19.9829 20.3195 19.1277 20.3195 18.2192V13.8471C20.3195 12.8694 19.6127 12.0351 18.6483 11.8743L14.2124 11.135C13.3464 10.9907 12.4874 11.4281 12.0948 12.2134L11.7483 12.9064C11.6394 12.8796 11.5178 12.8453 11.3857 12.8013C10.7654 12.5946 9.90444 12.1707 9.02661 11.2929C8.14877 10.4151 7.72495 9.55407 7.51818 8.93377C7.46231 8.76616 7.42209 8.61545 7.39315 8.48609Z" fill="#FF2330"/>
</svg>
