<svg width="21" height="21" viewBox="0 0 21 21" fill="none" xmlns="http://www.w3.org/2000/svg">
<path d="M2.15252 2.6001H6.64247L8.08968 6.21813L5.7648 7.76805C5.4866 7.95351 5.3195 8.26574 5.3195 8.6001C5.32204 8.69373 5.3195 8.6011 5.3195 8.6011L5.3195 8.60215L5.31951 8.60438L5.31954 8.60943L5.31969 8.62177C5.31983 8.63098 5.32009 8.64218 5.32051 8.65529C5.32135 8.6815 5.32288 8.7154 5.32562 8.75646C5.3311 8.83856 5.34141 8.94954 5.3608 9.08527C5.39956 9.35656 5.47478 9.72821 5.62082 10.1663C5.91405 11.046 6.49023 12.185 7.61239 13.3072C8.73456 14.4294 9.87357 15.0055 10.7533 15.2988C11.1914 15.4448 11.563 15.52 11.8343 15.5588C11.9701 15.5782 12.081 15.5885 12.1631 15.594C12.2042 15.5967 12.2381 15.5982 12.2643 15.5991C12.2774 15.5995 12.2886 15.5998 12.2978 15.5999L12.3102 15.6001L12.3152 15.6001L12.3175 15.6001L12.3185 15.6001C12.3185 15.6001 12.4301 15.594 12.3195 15.6001C12.6983 15.6001 13.0445 15.3861 13.2139 15.0473L13.8836 13.7079L18.3195 14.4472V18.7671C16.2084 19.0724 10.5069 19.3733 6.02661 14.893C1.54631 10.4127 1.84722 4.7112 2.15252 2.6001ZM7.39315 9.08618L9.19908 7.88223C9.98601 7.35761 10.2979 6.35347 9.94663 5.47535L8.49942 1.85732C8.19569 1.098 7.46028 0.600098 6.64247 0.600098H2.10028C1.19177 0.600098 0.336588 1.23126 0.187443 2.217C-0.151866 4.4596 -0.613714 11.0811 4.61239 16.3072C9.8385 21.5333 16.46 21.0715 18.7026 20.7322C19.6883 20.583 20.3195 19.7278 20.3195 18.8193V14.4472C20.3195 13.4695 19.6127 12.6352 18.6483 12.4744L14.2124 11.7351C13.3464 11.5908 12.4874 12.0282 12.0948 12.8135L11.7483 13.5065C11.6394 13.4797 11.5178 13.4454 11.3857 13.4014C10.7654 13.1946 9.90444 12.7708 9.02661 11.893C8.14877 11.0152 7.72495 10.1542 7.51818 9.53387C7.46231 9.36625 7.42209 9.21555 7.39315 9.08618Z" fill="#3959D2"/>
</svg>
