<svg display="none" xmlns="http://www.w3.org/2000/svg">

	<symbol id="download" viewBox="0 0 12 13">
		<path fill-rule="evenodd" clip-rule="evenodd"
			d="M6 0.5C6.41421 0.5 6.75 0.831836 6.75 1.24118V6.26358L8.46967 4.56414C8.76256 4.2747 9.23744 4.2747 9.53033 4.56414C9.82322 4.85359 9.82322 5.32288 9.53033 5.61233L6.53033 8.57703C6.23744 8.86648 5.76256 8.86648 5.46967 8.57703L2.46967 5.61233C2.17678 5.32288 2.17678 4.85359 2.46967 4.56414C2.76256 4.2747 3.23744 4.2747 3.53033 4.56414L5.25 6.26358V1.24118C5.25 0.831836 5.58579 0.5 6 0.5ZM0.75 8.79412C1.16421 8.79412 1.5 9.12595 1.5 9.53529V11.0176H10.5V9.53529C10.5 9.12595 10.8358 8.79412 11.25 8.79412C11.6642 8.79412 12 9.12595 12 9.53529V11.0176C12 11.8363 11.3284 12.5 10.5 12.5H1.5C0.671573 12.5 0 11.8363 0 11.0176V9.53529C0 9.12595 0.335786 8.79412 0.75 8.79412Z" />

	</symbol>

	<symbol id="phone" viewBox="0 0 16 17">
		<path fill="none"
			d="M8.17149 10.0552C7.45384 9.65255 6.85987 9.0611 6.4542 8.34515L7.38717 6.9196C7.52467 6.70951 7.60808 6.46867 7.62998 6.21854C7.65187 5.96841 7.61157 5.71675 7.51266 5.48597L6.20136 2.42627C6.2011 2.42565 6.20083 2.42503 6.20057 2.42441C6.07152 2.12174 5.84779 1.86907 5.56293 1.70433C5.27749 1.53924 4.94613 1.4714 4.61878 1.51102L4.61878 1.51099L4.61216 1.51184C3.61405 1.63939 2.69667 2.12638 2.03177 2.88162C1.36687 3.63686 1.00005 4.60856 1 5.61477V5.61483C1 8.23654 2.04147 10.7509 3.8953 12.6047C5.74913 14.4585 8.26346 15.5 10.8852 15.5H10.8852C11.8914 15.4999 12.8631 15.1331 13.6184 14.4682C14.3736 13.8033 14.8606 12.8859 14.9882 11.8878L14.9882 11.8878L14.989 11.8812C15.0286 11.5539 14.9608 11.2225 14.7957 10.9371C14.6309 10.6522 14.3783 10.4285 14.0756 10.2994C14.075 10.2992 14.0743 10.2989 14.0737 10.2986L11.0167 8.98848C10.7839 8.8887 10.5298 8.84858 10.2776 8.87175C10.0254 8.89492 9.78289 8.98065 9.57214 9.12119L10.0695 9.86712L9.57214 9.12119L8.17149 10.0552ZM6.30015 8.58052C6.29923 8.58195 6.29827 8.58338 6.29733 8.58481L6.30015 8.58052Z"
			stroke="#1A1A1A" stroke-width="2" stroke-linecap="round" stroke-linejoin="round" />
	</symbol>

	<symbol id="search" viewBox="0 0 14 15">
		<path
			d="M6.34375 11.4375C8.88081 11.4375 10.9375 9.38081 10.9375 6.84375C10.9375 4.30669 8.88081 2.25 6.34375 2.25C3.80669 2.25 1.75 4.30669 1.75 6.84375C1.75 9.38081 3.80669 11.4375 6.34375 11.4375Z"
			stroke="#3959D2" stroke-width="2" stroke-linecap="round" stroke-linejoin="round" />
		<path d="M9.5918 10.0923L12.2496 12.7501" stroke="#3959D2" stroke-width="2" stroke-linecap="round"
			stroke-linejoin="round" />
	</symbol>

	<symbol id="arrow-right" viewBox="0 0 10 16">
		<path d="M2 2L8 8L2 14" stroke-width="3" />
	</symbol>

	<symbol id="prev-btn" viewBox="0 0 20 28">
		<g filter="url(#filter0_d_306_625)">
			<path d="M16 0L4 10L16 20L16 0Z" />
		</g>
		<defs>
			<filter id="filter0_d_306_625" x="0" y="0" width="20" height="28" filterUnits="userSpaceOnUse"
				color-interpolation-filters="sRGB">
				<feFlood flood-opacity="0" result="BackgroundImageFix" />
				<feColorMatrix in="SourceAlpha" type="matrix" values="0 0 0 0 0 0 0 0 0 0 0 0 0 0 0 0 0 0 127 0"
					result="hardAlpha" />
				<feOffset dy="4" />
				<feGaussianBlur stdDeviation="2" />
				<feColorMatrix type="matrix" values="0 0 0 0 0 0 0 0 0 0 0 0 0 0 0 0 0 0 0.25 0" />
				<feBlend mode="normal" in2="BackgroundImageFix" result="effect1_dropShadow_306_625" />
				<feBlend mode="normal" in="SourceGraphic" in2="effect1_dropShadow_306_625" result="shape" />
			</filter>
		</defs>
	</symbol>

	<symbol id="next-btn" viewBox="0 0 20 28">
		<g filter="url(#filter0_d_306_624)">
			<path d="M4 0L16 10L4 20L4 0Z" />
		</g>
		<defs>
			<filter id="filter0_d_306_624" x="0" y="0" width="20" height="28" filterUnits="userSpaceOnUse"
				color-interpolation-filters="sRGB">
				<feFlood flood-opacity="0" result="BackgroundImageFix" />
				<feColorMatrix in="SourceAlpha" type="matrix" values="0 0 0 0 0 0 0 0 0 0 0 0 0 0 0 0 0 0 127 0"
					result="hardAlpha" />
				<feOffset dy="4" />
				<feGaussianBlur stdDeviation="2" />
				<feColorMatrix type="matrix" values="0 0 0 0 0 0 0 0 0 0 0 0 0 0 0 0 0 0 0.25 0" />
				<feBlend mode="normal" in2="BackgroundImageFix" result="effect1_dropShadow_306_624" />
				<feBlend mode="normal" in="SourceGraphic" in2="effect1_dropShadow_306_624" result="shape" />
			</filter>
		</defs>
	</symbol>

	<symbol id="medal" viewBox="0 0 32 32">
		<path
			d="M15.9993 22C21.5221 22 25.9993 17.5228 25.9993 12C25.9993 6.47715 21.5221 2 15.9993 2C10.4764 2 5.99927 6.47715 5.99927 12C5.99927 17.5228 10.4764 22 15.9993 22Z"
			stroke="#FF2330" stroke-width="2" stroke-linecap="round" stroke-linejoin="round" />
		<path
			d="M15.9993 18C19.313 18 21.9993 15.3137 21.9993 12C21.9993 8.68629 19.313 6 15.9993 6C12.6856 6 9.99927 8.68629 9.99927 12C9.99927 15.3137 12.6856 18 15.9993 18Z"
			stroke="#FF2330" stroke-width="2" stroke-linecap="round" stroke-linejoin="round" />
		<path d="M22 19.9994V30L15.9991 27L10 30V20.0003" stroke="#FF2330" stroke-width="2" stroke-linecap="round"
			stroke-linejoin="round" />
	</symbol>

	<symbol id="fist" viewBox="0 0 28 32">
		<path
			d="M27.6291 11.7933C27.5782 11.5476 27.431 11.3326 27.2204 11.1963L10.1496 0.150504C9.71911 -0.128059 9.14473 -0.00905874 8.86023 0.417566L0.157422 13.4717C-0.0618907 13.8007 -0.0512033 14.232 0.184172 14.5497L6.61505 23.2314L4.71411 30.8351C4.64411 31.1151 4.70705 31.4118 4.88467 31.6394C5.06236 31.8669 5.33492 31.9999 5.62361 31.9999H21.6903C22.208 31.9999 22.6278 31.5802 22.6278 31.0624V25.5388L22.7165 25.4796C24.5472 24.2591 25.6403 22.2169 25.6403 20.0167V15.2797L27.4912 12.5034C27.6303 12.2947 27.68 12.0389 27.6291 11.7933ZM21.3115 9.60625L17.834 14.8224L15.0537 13.5867L18.7935 7.977L21.3115 9.60625ZM17.2192 6.95825L15.3442 9.77063L12.2645 8.23082L14.3504 5.10207L17.2192 6.95825ZM9.90736 2.22707L12.7761 4.08332L10.5745 7.38569L7.49486 5.84588L9.90736 2.22707ZM23.7653 20.0167C23.7653 21.5886 22.9844 23.0476 21.6765 23.9196C21.3736 24.1214 21.169 24.2583 21.169 24.2583C20.9089 24.4323 20.7528 24.7246 20.7528 25.0375V30.125H6.8243L8.54142 23.2566C8.60942 22.9846 8.55211 22.6964 8.38523 22.4712L2.08317 13.9634L6.44667 7.41813L14.2961 11.3428L13.1552 13.0543H7.63186C7.11411 13.0543 6.69436 13.474 6.69436 13.9918C6.69436 14.5095 7.11411 14.9293 7.63186 14.9293H11.0692L14.8267 22.4443C15.0582 22.9074 15.6214 23.0952 16.0845 22.8636C16.5476 22.632 16.7353 22.0689 16.5037 21.6058L13.1655 14.9293H13.458L22.3137 18.8651C22.731 19.0506 23.2212 18.9083 23.4745 18.5284L23.7653 18.0922V20.0167ZM22.3529 16.8306L19.5725 15.5949L22.8859 10.6249L25.4039 12.2542L22.3529 16.8306Z"
			fill="#FF2330" />
	</symbol>

	<symbol id="eye" viewBox="0 0 32 32">
		<path
			d="M16 6.99902C6 6.99902 2 16 2 16C2 16 6 24.999 16 24.999C26 24.999 30 16 30 16C30 16 26 6.99902 16 6.99902Z"
			stroke="#FF2330" stroke-width="2" stroke-linecap="round" stroke-linejoin="round" />
		<path
			d="M16 21.0001C18.7614 21.0001 21 18.7615 21 16.0001C21 13.2386 18.7614 11.0001 16 11.0001C13.2386 11.0001 11 13.2386 11 16.0001C11 18.7615 13.2386 21.0001 16 21.0001Z"
			stroke="#FF2330" stroke-width="2" stroke-linecap="round" stroke-linejoin="round" />
	</symbol>

	<symbol id="like" viewBox="0 0 32 32">
		<path
			d="M3.99927 13H9.99927V26H3.99927C3.73405 26 3.4797 25.8946 3.29216 25.7071C3.10462 25.5196 2.99927 25.2652 2.99927 25V14C2.99927 13.7348 3.10462 13.4804 3.29216 13.2929C3.4797 13.1054 3.73405 13 3.99927 13V13Z"
			stroke="#FF2330" stroke-width="2" stroke-linecap="round" stroke-linejoin="round" />
		<path
			d="M9.99927 13L14.9993 3C15.5246 3 16.0447 3.10346 16.53 3.30448C17.0153 3.5055 17.4563 3.80014 17.8277 4.17157C18.1991 4.54301 18.4938 4.98396 18.6948 5.46927C18.8958 5.95457 18.9993 6.47471 18.9993 7V10H26.7337C27.0173 10 27.2976 10.0603 27.5561 10.1769C27.8146 10.2935 28.0454 10.4638 28.2331 10.6764C28.4207 10.889 28.5611 11.1391 28.6447 11.41C28.7284 11.681 28.7534 11.9667 28.7183 12.2481L27.2183 24.2481C27.1578 24.7318 26.9228 25.1767 26.5573 25.4994C26.1919 25.822 25.7212 26 25.2337 26H9.99927"
			stroke="#FF2330" stroke-width="2" stroke-linecap="round" stroke-linejoin="round" />
	</symbol>

	<symbol id="flag" viewBox="0 0 32 32">
		<path d="M13 21V10H26C27.0609 10 28.0783 10.4214 28.8284 11.1716C29.5786 11.9217 30 12.9391 30 14V21"
			stroke="#FF2330" stroke-width="2" stroke-linecap="round" stroke-linejoin="round" />
		<path d="M2 26V6" stroke="#FF2330" stroke-width="2" stroke-linecap="round" stroke-linejoin="round" />
		<path d="M2 21H30V26" stroke="#FF2330" stroke-width="2" stroke-linecap="round" stroke-linejoin="round" />
		<path d="M13 10H2" stroke="#FF2330" stroke-width="2" stroke-linecap="round" stroke-linejoin="round" />
	</symbol>

	<symbol id="shield-check" viewBox="0 0 32 32">
		<path
			d="M5 13.3333V6C5 5.73478 5.10536 5.48043 5.29289 5.29289C5.48043 5.10536 5.73478 5 6 5H26C26.2652 5 26.5196 5.10536 26.7071 5.29289C26.8946 5.48043 27 5.73478 27 6V13.3333C27 23.8352 18.0868 27.3146 16.307 27.9047C16.1081 27.9731 15.8919 27.9731 15.693 27.9047C13.9133 27.3146 5 23.8352 5 13.3333Z"
			stroke="#FF2330" stroke-width="2" stroke-linecap="round" stroke-linejoin="round" />
		<path d="M21.5 12L14.1666 19L10.5 15.5" stroke="#FF2330" stroke-width="2" stroke-linecap="round"
			stroke-linejoin="round" />
	</symbol>

	<symbol id="whatsapp" viewBox="0 0 48 48">
		<path fill-rule="evenodd" clip-rule="evenodd"
			d="M24 48C10.7452 48 0 37.2548 0 24C0 10.7452 10.7452 0 24 0C37.2548 0 48 10.7452 48 24C48 37.2548 37.2548 48 24 48ZM24.7911 37.3525C32.6595 37.3493 39.059 30.9483 39.0621 23.0815C39.0637 19.2683 37.5806 15.6828 34.8862 12.9854C32.1918 10.2879 28.6086 8.80165 24.7909 8.8C16.9248 8.8 10.5228 15.2017 10.5196 23.0702C10.5186 25.5855 11.1757 28.0405 12.4246 30.2048L10.4 37.6L17.9653 35.6155C20.0498 36.7524 22.3967 37.3517 24.7852 37.3525H24.7911Z" />
		<path fill-rule="evenodd" clip-rule="evenodd"
			d="M18.3159 33.0319L13.8265 34.2096L15.0248 29.8324L14.7428 29.3836C13.5554 27.4951 12.9283 25.3124 12.9292 23.0711C12.9318 16.5311 18.2529 11.2104 24.7958 11.2104C27.964 11.2115 30.9422 12.4469 33.1817 14.689C35.4212 16.9311 36.6538 19.9112 36.6526 23.0807C36.6499 29.6212 31.3289 34.9424 24.7911 34.9424H24.7863C22.6578 34.9415 20.5702 34.3697 18.749 33.289L18.3159 33.0319ZM31.9808 26.4751C31.8917 26.3264 31.654 26.2372 31.2974 26.0586C30.9408 25.8801 29.1877 25.0176 28.8608 24.8985C28.534 24.7795 28.2961 24.7201 28.0585 25.0769C27.8208 25.4339 27.1374 26.2372 26.9294 26.4751C26.7214 26.7131 26.5133 26.7429 26.1569 26.5644C25.8003 26.3859 24.6513 26.0094 23.2893 24.7945C22.2292 23.8489 21.5135 22.6813 21.3055 22.3243C21.0975 21.9673 21.2834 21.7743 21.4619 21.5965C21.6223 21.4367 21.8185 21.1799 21.9968 20.9718C22.1751 20.7636 22.2345 20.6148 22.3533 20.377C22.4722 20.1389 22.4128 19.9307 22.3236 19.7522C22.2345 19.5737 21.5213 17.8185 21.2242 17.1045C20.9347 16.4092 20.6408 16.5034 20.4219 16.4924C20.2141 16.482 19.9762 16.4798 19.7385 16.4798C19.5008 16.4798 19.1144 16.569 18.7876 16.926C18.4607 17.283 17.5395 18.1457 17.5395 19.9008C17.5395 21.656 18.8173 23.3516 18.9956 23.5896C19.1739 23.8276 21.51 27.4293 25.0871 28.9739C25.9379 29.3413 26.602 29.5607 27.12 29.725C27.9742 29.9965 28.7516 29.9582 29.3659 29.8663C30.0511 29.764 31.4756 29.0038 31.7729 28.1709C32.0699 27.3378 32.0699 26.6238 31.9808 26.4751Z" />
	</symbol>

	<symbol id="instagram" viewBox="0 0 48 48">
		<path fill-rule="evenodd" clip-rule="evenodd"
			d="M0 24C0 10.7452 10.7452 0 24 0C37.2548 0 48 10.7452 48 24C48 37.2548 37.2548 48 24 48C10.7452 48 0 37.2548 0 24ZM24.0012 11.2C20.5249 11.2 20.0886 11.2152 18.7233 11.2773C17.3606 11.3397 16.4305 11.5555 15.6166 11.872C14.7747 12.1989 14.0606 12.6363 13.3491 13.348C12.6371 14.0595 12.1997 14.7736 11.8717 15.6152C11.5544 16.4294 11.3384 17.3598 11.2771 18.7219C11.216 20.0873 11.2 20.5238 11.2 24.0001C11.2 27.4764 11.2155 27.9114 11.2773 29.2767C11.34 30.6394 11.5557 31.5695 11.872 32.3834C12.1992 33.2253 12.6365 33.9394 13.3483 34.6509C14.0595 35.3629 14.7736 35.8013 15.615 36.1283C16.4294 36.4448 17.3598 36.6605 18.7222 36.7229C20.0876 36.7851 20.5236 36.8003 23.9996 36.8003C27.4762 36.8003 27.9111 36.7851 29.2765 36.7229C30.6391 36.6605 31.5703 36.4448 32.3848 36.1283C33.2264 35.8013 33.9394 35.3629 34.6506 34.6509C35.3626 33.9394 35.8 33.2253 36.128 32.3837C36.4427 31.5695 36.6587 30.6391 36.7227 29.277C36.784 27.9116 36.8 27.4764 36.8 24.0001C36.8 20.5238 36.784 20.0876 36.7227 18.7222C36.6587 17.3595 36.4427 16.4294 36.128 15.6155C35.8 14.7736 35.3626 14.0595 34.6506 13.348C33.9386 12.636 33.2266 12.1987 32.384 11.872C31.5679 11.5555 30.6373 11.3397 29.2746 11.2773C27.9092 11.2152 27.4746 11.2 23.9972 11.2H24.0012Z" />
		<path fill-rule="evenodd" clip-rule="evenodd"
			d="M22.8529 13.5067C23.1937 13.5062 23.574 13.5067 24.0012 13.5067C27.4188 13.5067 27.8239 13.519 29.1735 13.5803C30.4215 13.6374 31.0989 13.8459 31.5501 14.0211C32.1474 14.2531 32.5733 14.5304 33.021 14.9784C33.469 15.4264 33.7464 15.8531 33.9789 16.4505C34.1541 16.9011 34.3629 17.5785 34.4197 18.8265C34.481 20.1758 34.4944 20.5812 34.4944 23.9972C34.4944 27.4132 34.481 27.8186 34.4197 29.1679C34.3626 30.4159 34.1541 31.0933 33.9789 31.5439C33.7469 32.1413 33.469 32.5666 33.021 33.0144C32.573 33.4624 32.1477 33.7397 31.5501 33.9717C31.0994 34.1477 30.4215 34.3557 29.1735 34.4128C27.8242 34.4741 27.4188 34.4874 24.0012 34.4874C20.5833 34.4874 20.1782 34.4741 18.8289 34.4128C17.5809 34.3552 16.9035 34.1466 16.4521 33.9714C15.8547 33.7394 15.428 33.4621 14.98 33.0141C14.532 32.5661 14.2547 32.1405 14.0222 31.5429C13.847 31.0922 13.6382 30.4149 13.5814 29.1669C13.52 27.8175 13.5078 27.4122 13.5078 23.994C13.5078 20.5758 13.52 20.1726 13.5814 18.8233C13.6384 17.5753 13.847 16.8979 14.0222 16.4467C14.2542 15.8494 14.532 15.4227 14.98 14.9747C15.428 14.5267 15.8547 14.2494 16.4521 14.0168C16.9033 13.8408 17.5809 13.6328 18.8289 13.5755C20.0097 13.5222 20.4673 13.5062 22.8529 13.5035V13.5067ZM30.8338 15.632C29.9858 15.632 29.2978 16.3193 29.2978 17.1675C29.2978 18.0155 29.9858 18.7035 30.8338 18.7035C31.6818 18.7035 32.3698 18.0155 32.3698 17.1675C32.3698 16.3195 31.6818 15.632 30.8338 15.632ZM24.0012 17.4267C20.371 17.4267 17.4278 20.37 17.4278 24.0001C17.4278 27.6303 20.371 30.5722 24.0012 30.5722C27.6314 30.5722 30.5735 27.6303 30.5735 24.0001C30.5735 20.37 27.6314 17.4267 24.0012 17.4267Z" />
		<path fill-rule="evenodd" clip-rule="evenodd"
			d="M24.0012 19.7334C26.3575 19.7334 28.2679 21.6436 28.2679 24.0001C28.2679 26.3564 26.3575 28.2668 24.0012 28.2668C21.6446 28.2668 19.7345 26.3564 19.7345 24.0001C19.7345 21.6436 21.6446 19.7334 24.0012 19.7334Z" />
	</symbol>

	<symbol id="nav-btn" viewBox="0 0 24 24">
		<path d="M5 3l3.057-3 11.943 12-11.943 12-3.057-3 9-9z" />
	</symbol>

	<symbol id="success" viewBox="0 0 130.2 130.2">
		<circle class="path circle" fill="none" stroke="#73AF55" stroke-width="6" stroke-miterlimit="10" cx="65.1"
			cy="65.1" r="62.1" />
		<polyline class="path check" fill="none" stroke="#73AF55" stroke-width="6" stroke-linecap="round"
			stroke-miterlimit="10" points="100.2,40.2 51.5,88.8 29.8,67.5 " />
	</symbol>

	<symbol id="top-arrow" viewBox="0 0 20 23">
		<path d="M2.64697 10.2648L9.99991 2.91187L17.3529 10.2648" stroke="#3959D2" stroke-width="4"
			stroke-linecap="round" stroke-linejoin="round" />
		<path d="M10 20.5589V2.91187" stroke="#3959D2" stroke-width="4" stroke-linecap="round" stroke-linejoin="round" />
	</symbol>

</svg>

</svg>