<svg width="21" height="21" viewBox="0 0 21 21" fill="none" xmlns="http://www.w3.org/2000/svg">
<path fill-rule="evenodd" clip-rule="evenodd" d="M10.16 2.032C5.67103 2.032 2.032 5.67103 2.032 10.16C2.032 14.649 5.67103 18.288 10.16 18.288C14.649 18.288 18.288 14.649 18.288 10.16C18.288 5.67103 14.649 2.032 10.16 2.032ZM0 10.16C0 4.54879 4.54879 0 10.16 0C15.7712 0 20.32 4.54879 20.32 10.16C20.32 15.7712 15.7712 20.32 10.16 20.32C4.54879 20.32 0 15.7712 0 10.16ZM10.16 4.064C10.7211 4.064 11.176 4.51888 11.176 5.08V9.73916L13.9264 12.4896C14.3232 12.8864 14.3232 13.5296 13.9264 13.9264C13.5296 14.3232 12.8864 14.3232 12.4896 13.9264L9.44158 10.8784C9.25104 10.6879 9.144 10.4295 9.144 10.16V5.08C9.144 4.51888 9.59888 4.064 10.16 4.064Z" fill="#FF2330"/>
</svg>
