<svg width="120" height="104" viewBox="0 0 120 104" fill="none" xmlns="http://www.w3.org/2000/svg">
<path d="M95.9793 101.583H93.8405L92.8228 93.3169H95.9797L95.9793 101.583Z" fill="#FFB6B6"/>
<path d="M96.5252 103.661L89.6279 103.66V103.573C89.6279 102.859 89.9107 102.175 90.4144 101.671C90.9176 101.167 91.6007 100.883 92.3124 100.883H92.3128H96.5252V103.661Z" fill="#04005E"/>
<path d="M112.158 99.7317L110.122 100.389L106.623 92.8344L109.628 91.8643L112.158 99.7317Z" fill="#FFB6B6"/>
<path d="M113.314 101.541L106.749 103.66L106.722 103.577C106.504 102.898 106.563 102.16 106.888 101.525C107.213 100.891 107.776 100.411 108.454 100.192L112.463 98.8979L113.314 101.541Z" fill="#04005E"/>
<path d="M113.228 73.3606C114.703 73.3606 115.899 72.1625 115.899 70.6849C115.899 69.2069 114.703 68.0088 113.228 68.0088C111.753 68.0088 110.557 69.2069 110.557 70.6849C110.557 72.1625 111.753 73.3606 113.228 73.3606Z" fill="#EFB509"/>
<path d="M116.726 75.5671C116.678 75.5933 116.63 75.6174 116.583 75.6416L110.943 65.1513C110.99 65.1247 111.036 65.0985 111.084 65.0723C112.473 64.3235 114.103 64.1575 115.614 64.6118C117.125 65.066 118.394 66.1027 119.141 67.4942C119.89 68.8857 120.055 70.5181 119.602 72.0319C119.149 73.5458 118.114 74.8175 116.726 75.5671Z" fill="#04005E"/>
<path d="M111.519 70.2377L110.73 59.2816L110.88 55.6245L107.808 56.3092L108.94 70.6658C108.811 70.9304 108.759 71.2253 108.786 71.5182C108.814 71.8111 108.922 72.0906 109.097 72.3261C109.273 72.5619 109.51 72.7446 109.783 72.8544C110.055 72.9642 110.352 72.9967 110.642 72.9488C110.931 72.9006 111.203 72.7737 111.425 72.5815C111.648 72.3897 111.813 72.1401 111.903 71.8601C111.994 71.5806 112.006 71.2811 111.938 70.9949C111.87 70.7087 111.725 70.4466 111.519 70.2377Z" fill="#FFB7B7"/>
<path d="M97.616 60.5803L97.4208 56.9091L95.4489 55.3042L95.1765 58.8323L87.918 67.2401C87.6161 67.2883 87.3342 67.4227 87.1058 67.6265C86.8774 67.8304 86.7122 68.0958 86.6295 68.3907C86.5473 68.6857 86.5506 68.9985 86.6399 69.2918C86.7292 69.5847 86.9003 69.8463 87.1328 70.0452C87.3657 70.2436 87.6506 70.3713 87.9537 70.4133C88.2568 70.4549 88.5653 70.4087 88.8431 70.2802C89.1205 70.1517 89.3559 69.9462 89.5203 69.6878C89.6852 69.4295 89.7728 69.1296 89.7728 68.823C89.7728 68.8017 89.7703 68.7805 89.7695 68.7593L97.616 60.5803Z" fill="#FFB7B7"/>
<path d="M97.9693 59.405L91.7746 67.2774L89.676 65.0348L94.013 58.7274L96.7303 46.7686C96.8025 46.6151 96.9051 46.4778 97.0313 46.3651C97.158 46.2519 97.3058 46.1658 97.4661 46.1113C97.6238 46.0572 97.7912 46.0356 97.9573 46.0477C98.1238 46.0593 98.2857 46.1051 98.4344 46.1812L98.4697 46.1991L97.9693 59.405Z" fill="#EFB509"/>
<path d="M108.617 66.857L106.649 53.1527L106.653 53.1402L108.673 45.1809L108.863 45.1588C109.409 45.0985 109.958 45.2441 110.402 45.5678C110.846 45.8914 111.154 46.3698 111.265 46.9085L111.415 67.2776L108.617 66.857Z" fill="#EFB509"/>
<path d="M109.238 43.032H99.01V38.4022C99.0096 37.7291 99.1416 37.0626 99.3987 36.4406C99.6553 35.8187 100.032 35.2536 100.507 34.7775C100.982 34.3014 101.546 33.9238 102.167 33.6662C102.787 33.4085 103.453 33.2759 104.124 33.2759C104.796 33.2759 105.461 33.4085 106.082 33.6662C106.702 33.9238 107.266 34.3014 107.741 34.7775C108.216 35.2536 108.593 35.8187 108.85 36.4406C109.107 37.0626 109.239 37.7291 109.238 38.4022V43.032Z" fill="#04005E"/>
<path d="M107.674 40.9919C108.781 38.9624 108.037 36.4178 106.011 35.3084C103.986 34.199 101.446 34.9449 100.338 36.9743C99.2309 39.0038 99.9754 41.5483 102.001 42.6576C104.027 43.7671 106.567 43.0212 107.674 40.9919Z" fill="#FFB7B7"/>
<path d="M106.024 35.43C107.561 35.43 108.807 34.1818 108.807 32.6422C108.807 31.1026 107.561 29.8545 106.024 29.8545C104.487 29.8545 103.241 31.1026 103.241 32.6422C103.241 34.1818 104.487 35.43 106.024 35.43Z" fill="#04005E"/>
<path d="M110.382 39.2044H99.5029V39.1426C99.5029 36.3174 101.943 34.019 104.942 34.019C107.942 34.019 110.382 36.3174 110.382 39.1426V39.2044Z" fill="#04005E"/>
<path d="M96.4962 97.4518L92.4544 97.1627L92.449 97.1032C90.6776 77.7309 91.6825 64.9364 95.2783 61.0726L96.2927 59.1715L95.7372 55.9712C94.254 52.0566 96.7453 49.1933 96.9338 48.9849L97.7369 46.5712C97.7925 46.4048 97.8947 46.258 98.0313 46.1486C98.1679 46.0388 98.3327 45.971 98.5071 45.9531L109.421 44.8349L109.428 44.9043L109.421 44.8349C109.542 44.8224 109.664 44.8344 109.78 44.8698C109.896 44.9056 110.004 44.9642 110.097 45.042C110.191 45.1202 110.267 45.2163 110.323 45.3245C110.378 45.4327 110.412 45.5508 110.421 45.6723L110.422 45.6852L110.418 45.6976L106.44 59.1207L106.788 63.663L111.484 96.1705L107.44 97.0387L107.421 96.9771L99.9587 72.4726L96.4962 97.4518Z" fill="#04005E"/>
<path d="M86.3187 78.1404H0.97942C0.738333 78.14 0.507193 78.0439 0.336717 77.8734C0.16624 77.7024 0.0703441 77.4711 0.0700684 77.2294V0.981362C0.0703441 0.739824 0.16624 0.508254 0.336717 0.337459C0.507193 0.166663 0.738333 0.0705887 0.97942 0.0703125H86.3187C86.56 0.0705916 86.7908 0.166667 86.9615 0.337461C87.1322 0.508258 87.2277 0.739824 87.2281 0.981362V77.2294C87.2277 77.4711 87.1322 77.7024 86.9615 77.8734C86.7908 78.0439 86.56 78.14 86.3187 78.1404Z" fill="white"/>
<path d="M29.1963 3.42432V23.1289H29.1562C26.5481 23.1289 24.0468 22.0909 22.2026 20.2433C20.3583 18.3956 19.3223 15.8896 19.3223 13.2766C19.3223 10.6636 20.3583 8.15767 22.2026 6.31C24.0468 4.46234 26.5481 3.42432 29.1562 3.42432H29.1963Z" fill="#EFB509"/>
<path d="M26.9708 7.86523V18.6878H26.9488C25.5163 18.6878 24.1425 18.1177 23.1296 17.1029C22.1166 16.0881 21.5476 14.7117 21.5476 13.2766C21.5476 11.8414 22.1166 10.465 23.1296 9.45019C24.1425 8.43536 25.5163 7.86523 26.9488 7.86523H26.9708Z" fill="white"/>
<path d="M43.7249 39.3853H14.0105V13.1362H19.3223V13.4165H14.2903V39.105H43.7249V39.3853Z" fill="#04005E"/>
<path d="M47.7313 45.9958C49.2066 45.9958 50.4024 44.7978 50.4024 43.3201C50.4024 41.8421 49.2066 40.644 47.7313 40.644C46.256 40.644 45.0605 41.8421 45.0605 43.3201C45.0605 44.7978 46.256 45.9958 47.7313 45.9958Z" fill="#EFB509"/>
<path d="M72.6195 71.9041C74.0947 71.9041 75.2906 70.706 75.2906 69.228C75.2906 67.7503 74.0947 66.5522 72.6195 66.5522C71.1446 66.5522 69.9487 67.7503 69.9487 69.228C69.9487 70.706 71.1446 71.9041 72.6195 71.9041Z" fill="#04005E"/>
<path d="M14.1016 41.7388C15.5767 41.7388 16.7726 40.5405 16.7726 39.0626C16.7726 37.5848 15.5767 36.3867 14.1016 36.3867C12.6265 36.3867 11.4307 37.5848 11.4307 39.0626C11.4307 40.5405 12.6265 41.7388 14.1016 41.7388Z" fill="#EFB509"/>
<path d="M43.725 39.306H50.4022V32.6162H37.0476V45.9958H43.725V39.306Z" fill="#04005E"/>
<path d="M87.3103 5.61377H58.051V9.26276H87.3103V5.61377Z" fill="#FFECB9"/>
<path d="M87.3103 13.52H58.051V17.169H87.3103V13.52Z" fill="#FFECB9"/>
<path d="M78.5685 26.0479C78.5685 26.1027 78.5677 26.1562 78.5664 26.2097H66.6731C66.6719 26.1562 66.6707 26.1027 66.6707 26.0479C66.6707 24.4672 67.2976 22.9513 68.4133 21.8336C69.5291 20.7158 71.0421 20.0879 72.6196 20.0879C74.1974 20.0879 75.7105 20.7158 76.8262 21.8336C77.9419 22.9513 78.5685 24.4672 78.5685 26.0479Z" fill="#FFECB9"/>
<path d="M78.5685 68.4576C78.5685 68.5125 78.5677 68.5662 78.5664 68.6194H66.6731C66.6719 68.5662 66.6707 68.5125 66.6707 68.4576C66.6707 66.8772 67.2976 65.3609 68.4133 64.2435C69.5291 63.1257 71.0421 62.4976 72.6196 62.4976C74.1974 62.4976 75.7105 63.1257 76.8262 64.2435C77.9419 65.3609 78.5685 66.8772 78.5685 68.4576Z" fill="#FFECB9"/>
<path d="M72.7594 32.0078H72.4795V62.4821H72.7594V32.0078Z" fill="#04005E"/>
<path d="M38.2614 65.5785C38.2614 67.9913 37.3075 70.3055 35.6086 72.0149C33.9097 73.7246 31.604 74.6906 29.196 74.7014V56.4561C31.604 56.4669 33.9097 57.4328 35.6086 59.1426C37.3075 60.8519 38.2614 63.1661 38.2614 65.5785Z" fill="#EFB509"/>
<path d="M86.5815 78.4905H0.868335C0.638114 78.4905 0.417405 78.3985 0.254618 78.2355C0.091832 78.0724 0.000263249 77.8511 0 77.6206V0.869985C0.000263249 0.639338 0.091832 0.418209 0.254618 0.255114C0.417405 0.0920192 0.638114 0.000271915 0.868335 0H86.5815C86.8119 0.000271915 87.0324 0.0920192 87.1952 0.255114C87.3579 0.418209 87.4497 0.639338 87.4497 0.869985V77.6206C87.4497 77.8511 87.3579 78.0724 87.1952 78.2355C87.0324 78.3985 86.8119 78.4905 86.5815 78.4905ZM0.868335 0.280323C0.712293 0.280502 0.5627 0.342685 0.452367 0.453228C0.342032 0.563776 0.279971 0.713652 0.279801 0.869985V77.6206C0.279971 77.777 0.342032 77.9268 0.452367 78.0374C0.5627 78.1477 0.712293 78.2101 0.868335 78.2101H86.5815C86.7376 78.2101 86.8871 78.1477 86.9975 78.0374C87.108 77.9268 87.1698 77.777 87.1698 77.6206V0.869985C87.1698 0.713656 87.108 0.563776 86.9975 0.453232C86.8871 0.342689 86.7376 0.280505 86.5815 0.280323H0.868335Z" fill="#04005E"/>
<path d="M29.0562 23.2698V3.28369L29.1966 3.28424C31.8349 3.29481 34.3616 4.35224 36.2234 6.22503C38.0853 8.09786 39.1306 10.6335 39.1306 13.2767C39.1306 15.92 38.0853 18.4556 36.2234 20.3284C34.3616 22.2012 31.8349 23.2586 29.1966 23.2692L29.0562 23.2698ZM29.3359 3.56613V22.9873C31.8754 22.94 34.2948 21.8962 36.074 20.0802C37.8532 18.2643 38.85 15.8213 38.85 13.2767C38.85 10.7321 37.8532 8.28914 36.074 6.47322C34.2948 4.65725 31.8754 3.61341 29.3359 3.56613Z" fill="#04005E"/>
<path d="M29.336 74.8417H29.156C26.704 74.8417 24.3524 73.8658 22.6185 72.1286C20.8847 70.3913 19.9106 68.0355 19.9106 65.5791C19.9106 63.1222 20.8847 60.7664 22.6185 59.0291C24.3524 57.2923 26.704 56.3164 29.156 56.3164H29.336V74.8417ZM29.0562 56.5972C26.6958 56.6234 24.441 57.5815 22.7812 59.2629C21.1213 60.9444 20.1904 63.2141 20.1904 65.5791C20.1904 67.944 21.1213 70.2133 22.7812 71.8948C24.441 73.5767 26.6958 74.5343 29.0562 74.5609V56.5972Z" fill="#04005E"/>
<path d="M72.6199 32.1484C71.0312 32.1569 69.5024 31.5395 68.3638 30.4293C67.2253 29.3192 66.568 27.8051 66.5335 26.2138L66.5298 26.0698H78.71L78.7062 26.2138C78.6718 27.8051 78.0141 29.3192 76.8755 30.4293C75.737 31.5395 74.2085 32.1569 72.6199 32.1484ZM66.8188 26.3501C66.896 27.8394 67.5409 29.2421 68.62 30.2688C69.6996 31.2956 71.1313 31.8681 72.6199 31.8681C74.1081 31.8681 75.5397 31.2956 76.6193 30.2688C77.6989 29.2421 78.3438 27.8394 78.421 26.3501H66.8188Z" fill="#04005E"/>
<path d="M87.3098 52.1401H0.139893V52.42H87.3098V52.1401Z" fill="#04005E"/>
<path d="M87.3098 26.0698H0.139893V26.3496H87.3098V26.0698Z" fill="#04005E"/>
<path d="M58.3931 0.140137H58.1133V78.3502H58.3931V0.140137Z" fill="#04005E"/>
<path d="M29.3359 0.140137H29.0562V78.3502H29.3359V0.140137Z" fill="#04005E"/>
<path d="M20.4148 68.012C21.89 68.012 23.0858 66.8139 23.0858 65.3359C23.0858 63.8578 21.89 62.6602 20.4148 62.6602C18.9397 62.6602 17.7439 63.8578 17.7439 65.3359C17.7439 66.8139 18.9397 68.012 20.4148 68.012Z" fill="#EFB509"/>
</svg>
