<svg width="36" height="40" viewBox="0 0 36 40" fill="none" xmlns="http://www.w3.org/2000/svg">
<path fill-rule="evenodd" clip-rule="evenodd" d="M29.6876 20.5361V16.7969C29.6876 11.342 26.0617 6.71867 21.0938 5.20859V3.51562C21.0938 1.57711 19.5167 0 17.5782 0C15.6397 0 14.0626 1.57711 14.0626 3.51562V5.20859C9.09462 6.71867 5.46884 11.342 5.46884 16.7969V20.5361C5.46884 25.3277 3.64244 29.8711 0.326107 33.3295C0.00110693 33.6684 -0.0902213 34.1685 0.0939975 34.6004C0.278216 35.0323 0.702435 35.3125 1.17197 35.3125H11.8367C12.3811 37.9837 14.7486 40 17.5782 40C20.4079 40 22.7752 37.9837 23.3197 35.3125H33.9845C34.454 35.3125 34.8781 35.0323 35.0624 34.6004C35.2466 34.1685 35.1552 33.6684 34.8303 33.3295C31.514 29.8711 29.6876 25.3276 29.6876 20.5361ZM16.4063 3.51562C16.4063 2.86945 16.932 2.34375 17.5782 2.34375C18.2244 2.34375 18.7501 2.86945 18.7501 3.51562V4.74438C18.3644 4.70719 17.9735 4.6875 17.5782 4.6875C17.1829 4.6875 16.792 4.70719 16.4063 4.74438V3.51562ZM17.5782 37.6562C16.0505 37.6562 14.7479 36.6765 14.2642 35.3125H20.8923C20.4085 36.6765 19.106 37.6562 17.5782 37.6562ZM3.69775 32.9688C6.36658 29.3913 7.81259 25.0619 7.81259 20.5361V16.7969C7.81259 11.4121 12.1935 7.03125 17.5782 7.03125C22.963 7.03125 27.3438 11.4121 27.3438 16.7969V20.5361C27.3438 25.0619 28.7899 29.3913 31.4588 32.9688H3.69775ZM32.8126 16.7968C32.8126 17.444 33.3373 17.9687 33.9845 17.9687C34.6317 17.9687 35.1564 17.444 35.1564 16.7968C35.1564 12.1015 33.3279 7.68722 30.0078 4.36714C29.5503 3.90956 28.8082 3.90948 28.3506 4.36714C27.8929 4.82479 27.8929 5.56675 28.3506 6.0244C31.228 8.90183 32.8126 12.7275 32.8126 16.7968ZM2.34375 16.7968C2.34375 17.444 1.81906 17.9687 1.17187 17.9687C0.524687 17.9687 0 17.444 0 16.7968C0 12.1015 1.82844 7.68725 5.14852 4.36717C5.60617 3.90951 6.3482 3.90951 6.80578 4.36717C7.26344 4.82482 7.26344 5.56678 6.80578 6.02443C3.92844 8.90185 2.34375 12.7276 2.34375 16.7968Z" fill="#F27407"/>
</svg>
