<svg width="150" height="150" viewBox="0 0 150 150" fill="none" xmlns="http://www.w3.org/2000/svg">
<g clip-path="url(#clip0_1309_3705)">
<path d="M0 75C0 116.421 33.5786 150 75 150C116.421 150 150 116.421 150 75C150 33.5786 116.421 0 75 0C33.5786 0 0 33.5786 0 75ZM135 75C135 108.137 108.137 135 75 135C41.8629 135 15 108.137 15 75C15 41.8629 41.8629 15 75 15C108.137 15 135 41.8629 135 75Z" fill="#4F4D8E" fill-opacity="0.2"/>
<mask id="mask0_1309_3705" style="mask-type:alpha" maskUnits="userSpaceOnUse" x="75" y="0" width="75" height="150">
<path d="M75 0C94.8912 -2.37201e-07 113.968 7.90176 128.033 21.967C142.098 36.0322 150 55.1088 150 75C150 94.8912 142.098 113.968 128.033 128.033C113.968 142.098 94.8912 150 75 150L75 135C90.913 135 106.174 128.679 117.426 117.426C128.679 106.174 135 90.913 135 75C135 59.087 128.679 43.8258 117.426 32.5736C106.174 21.3214 90.913 15 75 15V0Z" fill="#FF4086"/>
</mask>
<g mask="url(#mask0_1309_3705)">
<path d="M75 -6.55671e-06C94.8912 -5.05496e-06 113.968 7.90176 128.033 21.967C142.098 36.0322 150 55.1088 150 75C150 94.8912 142.098 113.968 128.033 128.033C113.968 142.098 94.8912 150 75 150L75 135C90.913 135 106.174 128.679 117.426 117.426C128.679 106.174 135 90.913 135 75C135 59.087 128.679 43.8258 117.426 32.5736C106.174 21.3214 90.913 15 75 15L75 -6.55671e-06Z" fill="#4F4D8E" fill-opacity="0.8"/>
</g>
<mask id="mask1_1309_3705" style="mask-type:alpha" maskUnits="userSpaceOnUse" x="-1" y="10" width="114" height="141">
<path d="M112.5 139.952C95.2737 149.898 74.802 152.593 55.5886 147.444C36.3751 142.296 19.9937 129.726 10.0481 112.5C0.10248 95.2737 -2.59267 74.802 2.55556 55.5886C7.70379 36.3751 20.2737 19.9937 37.5 10.0481L45 23.0385C31.2189 30.995 21.163 44.1001 17.0445 59.4709C12.9259 74.8416 15.082 91.219 23.0385 105C30.995 118.781 44.1001 128.837 59.4709 132.956C74.8416 137.074 91.2189 134.918 105 126.962L112.5 139.952Z" fill="#FF4086"/>
</mask>
<g mask="url(#mask1_1309_3705)">
<g filter="url(#filter0_d_1309_3705)">
<path d="M75 6.55671e-06C94.8912 4.58056e-06 113.968 7.90177 128.033 21.967C142.098 36.0322 150 55.1088 150 75C150 94.8912 142.098 113.968 128.033 128.033C113.968 142.098 94.8913 150 75 150L75 135C90.913 135 106.174 128.679 117.426 117.426C128.679 106.174 135 90.913 135 75C135 59.087 128.679 43.8258 117.426 32.5736C106.174 21.3214 90.913 15 75 15L75 6.55671e-06Z" fill="#4F4D8E" fill-opacity="0.8" shape-rendering="crispEdges"/>
</g>
</g>
</g>
<path d="M62.12 88H67.08V64.16L57.64 64.192V68.352H62.12V88ZM81.7178 88.384C87.5098 88.384 91.3498 83.424 91.3498 76.064C91.3498 68.704 87.5098 63.776 81.6858 63.776C75.9258 63.776 72.0538 68.672 72.0538 76.064C72.0538 83.456 75.9578 88.384 81.7178 88.384ZM81.7178 83.904C78.7418 83.904 76.9818 80.992 76.9818 76.064C76.9818 71.104 78.7098 68.256 81.6858 68.256C84.6938 68.256 86.4218 71.136 86.4218 76.064C86.4218 81.024 84.6938 83.904 81.7178 83.904Z" fill="#4F4D8E"/>
<defs>
<filter id="filter0_d_1309_3705" x="71" y="0" width="83" height="158" filterUnits="userSpaceOnUse" color-interpolation-filters="sRGB">
<feFlood flood-opacity="0" result="BackgroundImageFix"/>
<feColorMatrix in="SourceAlpha" type="matrix" values="0 0 0 0 0 0 0 0 0 0 0 0 0 0 0 0 0 0 127 0" result="hardAlpha"/>
<feOffset dy="4"/>
<feGaussianBlur stdDeviation="2"/>
<feComposite in2="hardAlpha" operator="out"/>
<feColorMatrix type="matrix" values="0 0 0 0 0 0 0 0 0 0 0 0 0 0 0 0 0 0 0.25 0"/>
<feBlend mode="normal" in2="BackgroundImageFix" result="effect1_dropShadow_1309_3705"/>
<feBlend mode="normal" in="SourceGraphic" in2="effect1_dropShadow_1309_3705" result="shape"/>
</filter>
<clipPath id="clip0_1309_3705">
<rect width="150" height="150" fill="white"/>
</clipPath>
</defs>
</svg>
