<svg width="150" height="150" viewBox="0 0 150 150" fill="none" xmlns="http://www.w3.org/2000/svg">
<g clip-path="url(#clip0_1309_3689)">
<path d="M0 75C0 116.421 33.5786 150 75 150C116.421 150 150 116.421 150 75C150 33.5786 116.421 0 75 0C33.5786 0 0 33.5786 0 75ZM135 75C135 108.137 108.137 135 75 135C41.8629 135 15 108.137 15 75C15 41.8629 41.8629 15 75 15C108.137 15 135 41.8629 135 75Z" fill="#4F4D8E" fill-opacity="0.2"/>
<mask id="mask0_1309_3689" style="mask-type:alpha" maskUnits="userSpaceOnUse" x="75" y="0" width="75" height="150">
<path d="M75 0C94.8912 -2.37201e-07 113.968 7.90176 128.033 21.967C142.098 36.0322 150 55.1088 150 75C150 94.8912 142.098 113.968 128.033 128.033C113.968 142.098 94.8912 150 75 150L75 135C90.913 135 106.174 128.679 117.426 117.426C128.679 106.174 135 90.913 135 75C135 59.087 128.679 43.8258 117.426 32.5736C106.174 21.3214 90.913 15 75 15V0Z" fill="#FF4086"/>
</mask>
<g mask="url(#mask0_1309_3689)">
<path d="M75 -6.55671e-06C94.8912 -5.05496e-06 113.968 7.90176 128.033 21.967C142.098 36.0322 150 55.1088 150 75C150 94.8912 142.098 113.968 128.033 128.033C113.968 142.098 94.8912 150 75 150L75 135C90.913 135 106.174 128.679 117.426 117.426C128.679 106.174 135 90.913 135 75C135 59.087 128.679 43.8258 117.426 32.5736C106.174 21.3214 90.913 15 75 15L75 -6.55671e-06Z" fill="#4F4D8E" fill-opacity="0.8"/>
</g>
<mask id="mask1_1309_3689" style="mask-type:alpha" maskUnits="userSpaceOnUse" x="0" y="0" width="75" height="150">
<path d="M75 150C55.1088 150 36.0322 142.098 21.967 128.033C7.90177 113.968 6.55671e-06 94.8912 6.55671e-06 75C6.55671e-06 55.1088 7.90177 36.0322 21.967 21.967C36.0322 7.90177 55.1088 4.81776e-06 75 6.55671e-06L75 15C59.087 15 43.8258 21.3214 32.5736 32.5736C21.3214 43.8258 15 59.087 15 75C15 90.913 21.3214 106.174 32.5736 117.426C43.8258 128.679 59.087 135 75 135L75 150Z" fill="#FF4086"/>
</mask>
<g mask="url(#mask1_1309_3689)">
<g filter="url(#filter0_d_1309_3689)">
<path d="M147.444 55.5885C152.593 74.802 149.897 95.2736 139.952 112.5C130.006 129.726 113.625 142.296 94.4114 147.444C75.1979 152.593 54.7263 149.897 37.5 139.952C20.2737 130.006 7.70377 113.625 2.55554 94.4114L17.0444 90.5291C21.163 105.9 31.2189 119.005 45 126.961C58.781 134.918 75.1583 137.074 90.5291 132.955C105.9 128.837 119.005 118.781 126.961 105C134.918 91.2189 137.074 74.8416 132.956 59.4708L147.444 55.5885Z" fill="#4F4D8E" fill-opacity="0.8" shape-rendering="crispEdges"/>
</g>
</g>
</g>
<path d="M62.12 88H67.08V64.16L57.64 64.192V68.352H62.12V88ZM81.7178 88.384C87.5098 88.384 91.3498 83.424 91.3498 76.064C91.3498 68.704 87.5098 63.776 81.6858 63.776C75.9258 63.776 72.0538 68.672 72.0538 76.064C72.0538 83.456 75.9578 88.384 81.7178 88.384ZM81.7178 83.904C78.7418 83.904 76.9818 80.992 76.9818 76.064C76.9818 71.104 78.7098 68.256 81.6858 68.256C84.6938 68.256 86.4218 71.136 86.4218 76.064C86.4218 81.024 84.6938 83.904 81.7178 83.904Z" fill="#4F4D8E"/>
<defs>
<filter id="filter0_d_1309_3689" x="-1.44446" y="55.5886" width="155.445" height="102.412" filterUnits="userSpaceOnUse" color-interpolation-filters="sRGB">
<feFlood flood-opacity="0" result="BackgroundImageFix"/>
<feColorMatrix in="SourceAlpha" type="matrix" values="0 0 0 0 0 0 0 0 0 0 0 0 0 0 0 0 0 0 127 0" result="hardAlpha"/>
<feOffset dy="4"/>
<feGaussianBlur stdDeviation="2"/>
<feComposite in2="hardAlpha" operator="out"/>
<feColorMatrix type="matrix" values="0 0 0 0 0 0 0 0 0 0 0 0 0 0 0 0 0 0 0.25 0"/>
<feBlend mode="normal" in2="BackgroundImageFix" result="effect1_dropShadow_1309_3689"/>
<feBlend mode="normal" in="SourceGraphic" in2="effect1_dropShadow_1309_3689" result="shape"/>
</filter>
<clipPath id="clip0_1309_3689">
<rect width="150" height="150" fill="white"/>
</clipPath>
</defs>
</svg>
