<svg width="41" height="44" viewBox="0 0 41 44" fill="none" xmlns="http://www.w3.org/2000/svg">
<path d="M20 17V19" stroke="#F27407" stroke-width="2" stroke-linecap="round" stroke-linejoin="round"/>
<path d="M20 29V31" stroke="#F27407" stroke-width="2" stroke-linecap="round" stroke-linejoin="round"/>
<path d="M17 29H21.5C22.163 29 22.7989 28.7366 23.2678 28.2678C23.7366 27.7989 24 27.163 24 26.5C24 25.837 23.7366 25.2011 23.2678 24.7322C22.7989 24.2634 22.163 24 21.5 24H18.5C17.837 24 17.2011 23.7366 16.7322 23.2678C16.2634 22.7989 16 22.163 16 21.5C16 20.837 16.2634 20.2011 16.7322 19.7322C17.2011 19.2634 17.837 19 18.5 19H23" stroke="#F27407" stroke-width="2" stroke-linecap="round" stroke-linejoin="round"/>
<path d="M34.5496 9.35168C31.4177 6.11197 27.3642 4.05191 22.9651 3.42524L24.219 2.17138C24.7158 1.67462 24.7158 0.869268 24.219 0.372507C23.7223 -0.124169 22.9169 -0.124169 22.4201 0.372507L19.1988 3.59374C18.7021 4.09041 18.7021 4.89585 19.1988 5.39261L22.42 8.61384C22.6684 8.86222 22.994 8.98645 23.3194 8.98645C23.6449 8.98645 23.9705 8.86222 24.2188 8.61384C24.7156 8.11716 24.7156 7.31173 24.2188 6.81496L23.4985 6.09459C26.9933 6.7785 30.1987 8.51131 32.7204 11.1198C35.9009 14.4097 37.6524 18.7423 37.6524 23.3194C37.6526 32.9989 29.7777 40.8737 20.0983 40.8737C10.4189 40.8737 2.54401 32.9989 2.54401 23.3195C2.54401 19.626 3.67754 16.0929 5.82214 13.1022C7.92222 10.1734 10.8173 7.98801 14.1947 6.78232C14.8563 6.54606 15.2011 5.81831 14.9649 5.15661C14.7287 4.49499 14.0008 4.1502 13.3392 4.38637C9.47204 5.767 6.15778 8.26827 3.75462 11.6197C1.29829 15.0453 0 19.091 0 23.3196C0 28.688 2.09058 33.7351 5.88668 37.5312C9.68277 41.327 14.7298 43.4177 20.0983 43.4177C25.4668 43.4177 30.5138 41.3271 34.3099 37.5311C38.106 33.735 40.1966 28.688 40.1966 23.3195C40.1966 18.079 38.1911 13.1184 34.5496 9.35168V9.35168Z" fill="#F27407"/>
</svg>
