<svg width="120" height="87" viewBox="0 0 120 87" fill="none" xmlns="http://www.w3.org/2000/svg">
<g clip-path="url(#clip0_1318_3755)">
<path d="M103.121 73.8428L101.506 74.7238L102.534 78.1007L104.149 78.2476L105.03 76.339L103.121 73.8428Z" fill="#FFB7B7"/>
<path d="M108.113 80.5967V82.2119L110.609 82.065L110.574 80.735L108.113 80.5967Z" fill="#FFB7B7"/>
<path d="M102.534 54.4614L103.414 65.4735L106.204 81.6245L110.609 81.0369L109.141 68.2631L109.728 56.5169L102.534 54.4614Z" fill="#04005E"/>
<path d="M114.28 46.2388L103.708 46.3857L102.534 54.4612L109.728 57.8381L111.49 64.2984L102.534 73.8422L106.057 78.2471C106.057 78.2471 111.05 71.4929 114.72 67.6757C118.391 63.8581 116.629 52.2588 116.629 52.2588L114.28 46.2388Z" fill="#04005E"/>
<path d="M107.966 25.3896C109.75 25.3896 111.197 23.9434 111.197 22.1594C111.197 20.3754 109.75 18.9292 107.966 18.9292C106.182 18.9292 104.736 20.3754 104.736 22.1594C104.736 23.9434 106.182 25.3896 107.966 25.3896Z" fill="#FFB7B7"/>
<path d="M106.792 24.3618V27.5921L108.994 31.1159C108.994 31.1159 112.371 28.6199 111.637 28.0326C110.903 27.4452 110.756 22.8936 110.756 22.8936L106.792 24.3618Z" fill="#FFB7B7"/>
<path d="M106.792 27.0043L104.589 29.6472L105.47 48.0005L112.371 47.8539L113.546 31.8496L112.078 27.7384L111.07 26.3682L109.288 29.0599L106.792 27.0043Z" fill="#F09D0A"/>
<path d="M103.268 36.5488L101.653 42.7153L103.268 48.8822L100.625 52.406L98.2754 41.2471C98.2754 41.2471 100.037 32.1438 100.184 31.116C100.331 30.0882 100.625 29.9414 100.625 29.9414L101.8 30.0882L103.268 36.5488Z" fill="#04005E"/>
<path d="M115.014 38.8974L116.042 40.8064L116.335 44.0364L115.748 47.7071L117.804 51.0843L119.859 41.834L117.657 29.9409H116.776L115.014 38.8974Z" fill="#04005E"/>
<path d="M102.533 73.6958C102.533 73.6958 100.478 74.283 99.7438 74.4299C99.0097 74.5768 100.184 77.3665 100.184 77.3665C100.184 77.3665 100.919 81.1841 101.065 81.9182C101.212 82.6524 102.24 85.1482 103.561 85.442C104.883 85.7355 104.002 80.303 104.002 80.303C104.002 80.303 104.589 78.541 104.589 77.9537C104.589 77.3665 103.708 77.6599 103.708 77.6599C101.359 77.3665 102.533 73.6958 102.533 73.6958Z" fill="#04005E"/>
<path d="M107.379 85.0016C107.526 85.8826 107.232 85.8826 109.581 86.1764C111.931 86.4699 111.343 84.5612 111.343 84.5612C111.245 83.6612 111.048 82.775 110.756 81.9185C110.316 80.7437 107.966 82.2119 107.966 82.2119C107.966 82.2119 107.232 84.1209 107.379 85.0016Z" fill="#04005E"/>
<path d="M110.76 22.9962L110.836 24.302C110.836 24.302 111.784 22.1595 111.931 19.9571C112.078 17.7547 109.581 17.3142 108.113 17.1673C106.645 17.0205 104.149 18.0483 104.149 19.2229C104.149 20.3976 106.792 20.1039 107.82 19.8102C108.847 19.5166 109.288 22.0127 109.288 22.0127L109.875 22.1595L110.76 22.9962Z" fill="#04005E"/>
<path d="M105.925 28.0446L106.792 27.0049L109.288 29.0604L106.792 30.8223L105.925 28.0446Z" fill="#F09D0A"/>
<path d="M112.078 27.7384L111.05 26.417L109.288 29.0598L111.49 30.675L112.078 27.7384Z" fill="#F09D0A"/>
<path d="M102.827 38.6037L103.414 44.1834L102.24 47.5603L101.506 50.7906C101.506 50.7906 101.506 53.8741 104.442 54.0206C107.379 54.1675 109.875 44.7706 109.875 44.7706C109.875 44.7706 110.316 46.8261 110.609 48.001C110.903 49.1755 115.895 53.8741 115.895 53.8741C115.895 53.8741 117.07 53.7272 118.097 51.3779C119.125 49.0286 116.042 46.8261 116.042 46.8261L115.161 43.7427L115.454 39.9251L117.51 29.941L111.417 26.7842L112.078 35.2268L109.875 41.8341L106.571 27.2247L105.47 28.0322L100.772 29.941L102.827 38.6037Z" fill="#04005E"/>
<path d="M38.6434 72.4074C38.2979 72.4047 37.9482 72.4022 37.6048 72.3916L37.6155 72.0453C37.9551 72.0557 38.3027 72.0605 38.6437 72.0609C38.9858 72.0609 39.3348 72.0554 39.6806 72.044L39.692 72.3902C39.342 72.4016 38.9896 72.4074 38.6434 72.4074ZM35.5224 72.2609C34.8324 72.1957 34.136 72.1071 33.4521 71.9981L33.5067 71.656C34.1834 71.764 34.8724 71.8516 35.5548 71.9164L35.5224 72.2609ZM41.7741 72.2574L41.7413 71.9126C42.4234 71.8471 43.1124 71.7588 43.7889 71.6498L43.8441 71.9919C43.1603 72.1019 42.4637 72.1912 41.7741 72.2574ZM31.4029 71.6029C30.7276 71.4498 30.0482 71.2722 29.3835 71.076L29.4817 70.7436C30.1393 70.9381 30.8114 71.1133 31.4795 71.2647L31.4029 71.6029ZM45.8927 71.5943L45.8158 71.2564C46.4855 71.1036 47.1575 70.9278 47.8131 70.7329L47.9117 71.0653C47.2489 71.2619 46.5696 71.4398 45.8927 71.5943ZM27.4021 70.4202C26.7504 70.1809 26.0985 69.9174 25.4643 69.6367L25.6045 69.3202C26.2318 69.5974 26.8768 69.8585 27.5215 70.0953L27.4021 70.4202ZM49.892 70.4067L49.7724 70.0816C50.4131 69.8457 51.0558 69.585 51.6827 69.3067L51.8231 69.6236C51.1896 69.9047 50.5396 70.1684 49.892 70.4067ZM23.5817 68.7302C22.9685 68.4098 22.3562 68.065 21.7618 67.7047L21.9414 67.4081C22.5295 67.765 23.1353 68.106 23.742 68.4229L23.5817 68.7302ZM53.7006 68.7174L53.5403 68.4102C54.1455 68.094 54.75 67.7526 55.3362 67.396L55.5162 67.6922C54.9234 68.0526 54.3124 68.3974 53.7006 68.7174ZM20.0118 66.5647C19.4438 66.1685 18.8809 65.7481 18.3386 65.3157L18.5546 65.0447C19.0912 65.4726 19.6482 65.8885 20.2101 66.2805L20.0118 66.5647ZM57.2634 66.5526L57.0648 66.2685C57.6265 65.876 58.1827 65.4602 58.7179 65.0326L58.9341 65.3033C58.3934 65.7354 57.831 66.1557 57.2634 66.5526ZM16.7487 63.9622C16.2353 63.496 15.7305 63.0078 15.2486 62.5109L15.4973 62.2698C15.9741 62.7612 16.4736 63.2443 16.9816 63.7057L16.7487 63.9622ZM60.5224 63.9502L60.2893 63.6936C60.7962 63.2333 61.2951 62.7498 61.7727 62.2571L62.0213 62.4981C61.5389 62.9964 61.0344 63.4847 60.5224 63.9502ZM13.8443 60.9674C13.3947 60.4405 12.9564 59.8922 12.5414 59.3381L12.8187 59.1302C13.2294 59.6788 13.663 60.2212 14.1078 60.7426L13.8443 60.9674ZM63.4255 60.9533L63.162 60.7285C63.6069 60.2067 64.0403 59.6633 64.451 59.1143L64.7286 59.3216C64.3134 59.8767 63.8751 60.4257 63.4255 60.9533ZM11.3453 57.6288C10.9663 57.0485 10.6016 56.4491 10.2612 55.8474L10.5629 55.6767C10.8995 56.2719 11.2604 56.865 11.6354 57.4391L11.3453 57.6288ZM65.9248 57.6098L65.6348 57.4209C66.01 56.8453 66.3706 56.2516 66.7075 55.6547L67.0093 55.825C66.6689 56.4281 66.3041 57.0288 65.9248 57.6098ZM9.29378 54.0002C8.99233 53.3767 8.70754 52.736 8.44737 52.0957L8.76826 51.9653C9.02575 52.5988 9.30747 53.2326 9.60571 53.8495L9.29378 54.0002ZM67.9772 53.9733L67.6651 53.8226C67.9631 53.205 68.2451 52.5691 68.5027 51.9329L68.8238 52.0626C68.5634 52.706 68.2786 53.3488 67.9772 53.9733ZM7.72419 50.1378C7.50502 49.4798 7.30485 48.8067 7.12906 48.1371L7.4642 48.0491C7.63799 48.7116 7.83609 49.3774 8.05289 50.0281L7.72419 50.1378ZM69.5458 50.1012L69.2169 49.9922C69.4324 49.3422 69.6296 48.676 69.8031 48.0122L70.1386 48.0998C69.9631 48.7709 69.7637 49.444 69.5458 50.1012ZM6.6643 46.1029C6.53192 45.4229 6.41995 44.7302 6.33137 44.0426L6.67495 43.9985C6.76257 44.6785 6.87337 45.364 7.0043 46.0364L6.6643 46.1029ZM70.6006 46.0647L70.2606 45.9991C70.3906 45.3267 70.5006 44.6409 70.5875 43.9602L70.9313 44.0043C70.8434 44.6922 70.7324 45.3853 70.6006 46.0647ZM6.13109 41.9657C6.08668 41.2753 6.06378 40.5733 6.06299 39.8795L6.40944 39.8791C6.4102 40.5657 6.43289 41.2602 6.47685 41.9433L6.13109 41.9657ZM71.1293 41.9271L70.7834 41.905C70.8265 41.2222 70.8486 40.5281 70.8486 39.8412L70.8482 39.7654H71.1948V39.8402C71.1948 40.5354 71.1727 41.2371 71.1293 41.9271ZM6.47206 37.8153L6.12626 37.7943C6.16923 37.1022 6.23495 36.4033 6.32164 35.7164L6.6654 35.7598C6.57954 36.4395 6.51451 37.1309 6.47206 37.8153ZM70.7786 37.7019C70.7337 37.0171 70.6662 36.3257 70.5782 35.6471L70.9213 35.6022C71.0106 36.2881 71.0789 36.9871 71.1244 37.6791L70.7786 37.7019ZM6.98985 33.721L6.64968 33.6556C6.78033 32.9756 6.93513 32.2908 7.10954 31.62L7.44482 31.7071C7.27226 32.3708 7.1192 33.0483 6.98985 33.721ZM70.2462 33.6093C70.1141 32.9362 69.9586 32.2592 69.7837 31.597L70.1189 31.5087C70.2955 32.178 70.4527 32.8623 70.5862 33.5427L70.2462 33.6093ZM8.02895 29.7268L7.69992 29.6181C7.91737 28.9598 8.15944 28.2995 8.41954 27.6554L8.74078 27.7852C8.48347 28.4223 8.24402 29.0756 8.02895 29.7268ZM69.1931 29.6187C68.9755 28.9685 68.7341 28.3171 68.4755 27.6827L68.7962 27.5519C69.0579 28.1932 69.302 28.8516 69.5217 29.5088L69.1931 29.6187ZM9.57644 25.8939L9.26416 25.7437C9.56468 25.119 9.88964 24.4956 10.2299 23.891L10.5319 24.061C10.1952 24.6591 9.87375 25.2758 9.57644 25.8939ZM67.6362 25.7995C67.3375 25.1843 67.0151 24.5699 66.6769 23.9733L66.9782 23.8025C67.32 24.4054 67.6462 25.0265 67.9475 25.6484L67.6362 25.7995ZM11.6027 22.2936L11.3122 22.1046C11.6901 21.5239 12.0919 20.9474 12.5065 20.3915L12.7843 20.5985C12.3741 21.1487 11.9764 21.7189 11.6027 22.2936ZM65.602 22.212C65.2272 21.6395 64.8286 21.071 64.4165 20.5224L64.6937 20.3145C65.11 20.869 65.5131 21.4436 65.892 22.0222L65.602 22.212ZM14.0714 18.9829L13.8075 18.7586C14.2563 18.2308 14.728 17.7104 15.2096 17.2121L15.4587 17.4529C14.9822 17.9459 14.5155 18.4607 14.0714 18.9829ZM63.1255 18.9116C62.6803 18.3908 62.212 17.8775 61.7341 17.3859L61.9827 17.1445C62.4655 17.6412 62.9386 18.16 63.3889 18.6864L63.1255 18.9116ZM16.9404 16.0144L16.7071 15.7582C17.2197 15.2913 17.7536 14.8353 18.2938 14.4031L18.5103 14.6736C17.9758 15.1012 17.4476 15.5524 16.9404 16.0144ZM60.2482 15.9515C59.7403 15.4917 59.2106 15.0419 58.6734 14.6147L58.8893 14.3436C59.432 14.7754 59.9672 15.2299 60.4806 15.6947L60.2482 15.9515ZM20.1621 13.4357L19.9633 13.152C20.5302 12.7548 21.1175 12.3707 21.709 12.0104L21.8893 12.3062C21.3041 12.6627 20.723 13.0428 20.1621 13.4357ZM57.0169 13.3806C56.4527 12.988 55.87 12.6093 55.2841 12.2548L55.4634 11.9584C56.0555 12.3166 56.6448 12.6995 57.2148 13.0962L57.0169 13.3806ZM23.6844 11.2899L23.5235 10.983C24.136 10.6618 24.7673 10.3561 25.3997 10.0746L25.5406 10.391C24.9149 10.6696 24.2904 10.972 23.6844 11.2899ZM53.4824 11.2423C52.8737 10.9257 52.2469 10.6247 51.6189 10.3476L51.7586 10.0306C52.3934 10.3106 53.0272 10.6149 53.6424 10.935L53.4824 11.2423ZM27.4501 9.6139L27.3298 9.28894C27.9794 9.04866 28.6455 8.82638 29.3096 8.62835L29.4085 8.96042C28.7515 9.15625 28.0926 9.37614 27.4501 9.6139ZM49.701 9.57459C49.0569 9.33904 48.3972 9.12149 47.74 8.92811L47.8379 8.59569C48.502 8.79118 49.1689 9.01111 49.82 9.24928L49.701 9.57459ZM31.4051 8.43476L31.3278 8.09711C32.0019 7.94266 32.6909 7.80811 33.376 7.69687L33.4314 8.0389C32.7537 8.14887 32.072 8.282 31.4051 8.43476ZM45.7417 8.40956C45.0734 8.259 44.3913 8.12825 43.7137 8.02083L43.7682 7.67859C44.4527 7.78721 45.1424 7.91942 45.8175 8.07156L45.7417 8.40956ZM35.4789 7.77376L35.4455 7.429C36.1334 7.36228 36.8337 7.31666 37.5279 7.29359L37.5393 7.63987C36.8527 7.66269 36.1596 7.70776 35.4789 7.77376ZM41.6651 7.763C40.9837 7.69932 40.2903 7.65669 39.6048 7.63631L39.6148 7.29004C40.3079 7.31069 41.0086 7.35373 41.6975 7.41811L41.6651 7.763Z" fill="#F09D0A"/>
<path d="M37.4161 16.283C41.9127 16.283 45.5575 12.6379 45.5575 8.14148C45.5575 3.64507 41.9127 0 37.4161 0C32.9197 0 29.2747 3.64507 29.2747 8.14148C29.2747 12.6379 32.9197 16.283 37.4161 16.283Z" fill="#F27407"/>
<path d="M68.943 38.4557C73.4392 38.4557 77.0844 34.8109 77.0844 30.3143C77.0844 25.8179 73.4392 22.1729 68.943 22.1729C64.4464 22.1729 60.8013 25.8179 60.8013 30.3143C60.8013 34.8109 64.4464 38.4557 68.943 38.4557Z" fill="#F27407"/>
<path d="M59.0689 72.4073C63.5654 72.4073 67.2106 68.7624 67.2106 64.2659C67.2106 59.7693 63.5654 56.1245 59.0689 56.1245C54.5727 56.1245 50.9275 59.7693 50.9275 64.2659C50.9275 68.7624 54.5727 72.4073 59.0689 72.4073Z" fill="#F27407"/>
<path d="M19.9205 73.7929C24.417 73.7929 28.0621 70.1477 28.0621 65.6515C28.0621 61.1549 24.417 57.5098 19.9205 57.5098C15.4241 57.5098 11.7791 61.1549 11.7791 65.6515C11.7791 70.1477 15.4241 73.7929 19.9205 73.7929Z" fill="#F27407"/>
<path d="M8.14148 38.4557C12.6379 38.4557 16.283 34.8109 16.283 30.3143C16.283 25.8179 12.6379 22.1729 8.14148 22.1729C3.64506 22.1729 0 25.8179 0 30.3143C0 34.8109 3.64506 38.4557 8.14148 38.4557Z" fill="#F27407"/>
<path d="M40.9051 7.49224H38.0655C37.8072 7.49224 37.5596 7.38966 37.3768 7.20704C37.1941 7.02445 37.0917 6.7768 37.0917 6.51859V3.67879C37.0917 3.66814 37.0896 3.65759 37.0855 3.64773C37.0813 3.6379 37.0755 3.62897 37.0679 3.62141C37.0603 3.6139 37.0513 3.6079 37.0417 3.60383C37.0317 3.59976 37.0213 3.59766 37.0106 3.59766H35.1444C34.7999 3.59766 34.4699 3.73441 34.2264 3.9779C33.9829 4.22135 33.8462 4.55155 33.8462 4.89583V11.3868C33.8462 11.7311 33.9829 12.0613 34.2264 12.3048C34.4699 12.5482 34.7999 12.685 35.1444 12.685H39.6882C40.0324 12.685 40.3627 12.5482 40.6062 12.3048C40.8496 12.0613 40.9862 11.7311 40.9862 11.3868V7.57335C40.9862 7.56269 40.9841 7.55214 40.98 7.54231C40.9762 7.53245 40.9699 7.52352 40.9624 7.516C40.9548 7.50845 40.9462 7.50248 40.9362 7.49842C40.9262 7.49431 40.9158 7.49224 40.9051 7.49224ZM39.0389 10.7377H35.7934C35.7075 10.7377 35.6248 10.7035 35.5641 10.6427C35.5031 10.5818 35.4689 10.4992 35.4689 10.4131C35.4689 10.3271 35.5031 10.2445 35.5641 10.1837C35.6248 10.1228 35.7075 10.0886 35.7934 10.0886H39.0389C39.1251 10.0886 39.2075 10.1228 39.2686 10.1837C39.3293 10.2445 39.3634 10.3271 39.3634 10.4131C39.3634 10.4992 39.3293 10.5818 39.2686 10.6427C39.2075 10.7035 39.1251 10.7377 39.0389 10.7377ZM39.0389 9.11497H35.7934C35.7075 9.11497 35.6248 9.08076 35.5641 9.0199C35.5031 8.95904 35.4689 8.87648 35.4689 8.79042C35.4689 8.70435 35.5031 8.6218 35.5641 8.56093C35.6248 8.50007 35.7075 8.46586 35.7934 8.46586H39.0389C39.1251 8.46586 39.2075 8.50007 39.2686 8.56093C39.3293 8.6218 39.3634 8.70435 39.3634 8.79042C39.3634 8.87648 39.3293 8.95904 39.2686 9.0199C39.2075 9.08076 39.1251 9.11497 39.0389 9.11497Z" fill="white"/>
<path d="M40.7269 6.77409L37.81 3.85702C37.8042 3.85137 37.7969 3.84754 37.7893 3.84599C37.7814 3.84444 37.7731 3.84523 37.7659 3.8483C37.7583 3.85137 37.7521 3.85654 37.7476 3.86316C37.7431 3.86982 37.7407 3.87761 37.7407 3.88561V6.51871C37.7407 6.60478 37.7749 6.68733 37.8359 6.74819C37.8966 6.80906 37.9793 6.84326 38.0652 6.84326H40.6983C40.7063 6.84323 40.7142 6.84082 40.7207 6.83637C40.7276 6.83192 40.7328 6.82557 40.7356 6.81819C40.7387 6.81078 40.7397 6.80268 40.738 6.79482C40.7366 6.78699 40.7328 6.77975 40.7269 6.77409Z" fill="white"/>
<path d="M60.2465 62.6621C60.1468 62.6621 60.0499 62.6966 59.9727 62.76C59.8958 62.8235 59.843 62.9118 59.8234 63.0094C59.804 63.1073 59.8192 63.209 59.8661 63.2969C59.9134 63.3852 59.9896 63.4542 60.0816 63.4921C60.174 63.5304 60.2765 63.5352 60.372 63.5062C60.4675 63.4773 60.5502 63.4159 60.6054 63.3331C60.6609 63.25 60.6858 63.1504 60.6761 63.0511C60.6661 62.9518 60.6223 62.8587 60.5516 62.7883C60.5116 62.7483 60.464 62.7166 60.4116 62.6949C60.3592 62.6731 60.303 62.6621 60.2465 62.6621Z" fill="white"/>
<path d="M62.6487 60.9371V60.9354C62.6353 60.8757 62.6049 60.8206 62.5618 60.7771C62.5187 60.7333 62.4639 60.7026 62.4042 60.6881C61.9225 60.5706 61.1646 60.6961 60.3249 61.0323C59.5173 61.3461 58.7784 61.814 58.1494 62.4099C57.9773 62.5809 57.8177 62.7637 57.6715 62.9568C57.3484 62.9344 57.0246 62.9864 56.7246 63.1088C55.7911 63.5195 55.5246 64.5709 55.4539 65.0026C55.4436 65.064 55.4474 65.1268 55.4656 65.1861C55.4836 65.2457 55.5149 65.3002 55.5577 65.3457C55.6001 65.3909 55.6525 65.4261 55.7108 65.4478C55.7691 65.4695 55.8315 65.4778 55.8932 65.4712H55.8953L56.9353 65.3578C56.9367 65.3712 56.938 65.3833 56.9391 65.3944C56.9525 65.5213 57.0091 65.6392 57.0991 65.7292L57.6067 66.2371C57.6963 66.3275 57.8146 66.384 57.9415 66.3975L57.976 66.4009L57.8629 67.4395V67.4416C57.8574 67.4944 57.8625 67.5478 57.8777 67.5985C57.8929 67.6495 57.9177 67.6968 57.9511 67.7381C57.9849 67.7792 58.026 67.8133 58.0729 67.8388C58.1194 67.864 58.1705 67.8799 58.2232 67.885C58.236 67.8864 58.2484 67.8871 58.2608 67.8875C58.2832 67.8875 58.3056 67.8854 58.328 67.8819C58.7618 67.8119 59.8129 67.5485 60.2225 66.6102C60.3439 66.3113 60.396 65.9888 60.3753 65.6671C60.5691 65.5213 60.7525 65.3616 60.9239 65.1895C61.5194 64.5661 61.9877 63.833 62.3032 63.0309C62.6377 62.2006 62.7636 61.4371 62.6487 60.9371ZM60.918 63.764C60.7853 63.8971 60.616 63.9875 60.4318 64.0244C60.2477 64.0612 60.0567 64.0423 59.8829 63.9706C59.7091 63.8988 59.5608 63.7771 59.4563 63.6209C59.3518 63.4647 59.296 63.2809 59.296 63.093C59.296 62.905 59.3515 62.7216 59.4556 62.565C59.5601 62.4088 59.7084 62.2871 59.8818 62.215C60.0556 62.143 60.2467 62.124 60.4308 62.1606C60.6153 62.1971 60.7846 62.2878 60.9173 62.4206L60.918 62.4212C61.0963 62.5964 61.1973 62.8354 61.1991 63.0854C61.2011 63.3354 61.1036 63.5757 60.928 63.754L60.918 63.764Z" fill="white"/>
<path d="M57.5484 66.3747C57.4856 66.3671 57.4225 66.3823 57.3705 66.4178C57.267 66.4885 57.1632 66.5585 57.0587 66.6264C57.0132 66.6557 56.9591 66.6688 56.9053 66.6637C56.8515 66.6585 56.8008 66.6354 56.7618 66.5981C56.7225 66.5609 56.697 66.5116 56.6894 66.4581C56.6815 66.4047 56.6922 66.3499 56.7191 66.303L56.9156 65.9637C56.9436 65.9226 56.9594 65.8744 56.9605 65.8247C56.9618 65.7747 56.9487 65.7257 56.9229 65.6833C56.897 65.6406 56.8594 65.6064 56.8146 65.585C56.7701 65.5633 56.7198 65.555 56.6705 65.5609C56.4525 65.5885 56.2498 65.6878 56.0946 65.8433C56.0353 65.9026 55.8553 66.0826 55.7587 66.7688C55.7311 66.9661 55.7136 67.1644 55.7067 67.3633C55.7056 67.3971 55.7115 67.4309 55.7236 67.4626C55.736 67.4944 55.7542 67.5233 55.7777 67.5481C55.8008 67.5726 55.8291 67.5926 55.8601 67.6064C55.8911 67.6202 55.9246 67.6275 55.9584 67.6285C55.9608 67.6285 55.9629 67.6285 55.9653 67.6285H55.9715C56.1708 67.6216 56.3694 67.6044 56.5667 67.5768C57.2532 67.4799 57.4332 67.2999 57.4922 67.2406C57.6484 67.085 57.7474 66.8816 57.7736 66.663C57.7818 66.5947 57.7629 66.5261 57.7205 66.4723C57.6784 66.4181 57.6163 66.383 57.5484 66.3747Z" fill="white"/>
<path d="M17.1187 70.0759H16.5288C16.4115 70.0759 16.299 70.0294 16.216 69.9463C16.133 69.8635 16.0864 69.7508 16.0864 69.6335V66.979C16.0864 66.8618 16.133 66.749 16.216 66.6663C16.299 66.5832 16.4115 66.5366 16.5288 66.5366H17.1187C17.236 66.5366 17.3486 66.5832 17.4316 66.6663C17.5145 66.749 17.5611 66.8618 17.5611 66.979V69.6335C17.5611 69.7508 17.5145 69.8635 17.4316 69.9463C17.3486 70.0294 17.236 70.0759 17.1187 70.0759Z" fill="white"/>
<path d="M21.2481 70.0756H20.6582C20.5409 70.0756 20.4284 70.029 20.3454 69.9459C20.2624 69.8632 20.2158 69.7504 20.2158 69.6332V65.209C20.2158 65.0918 20.2624 64.9794 20.3454 64.8963C20.4284 64.8132 20.5409 64.7666 20.6582 64.7666H21.2481C21.3655 64.7666 21.478 64.8132 21.561 64.8963C21.6439 64.9794 21.6905 65.0918 21.6905 65.209V69.6332C21.6905 69.7504 21.6439 69.8632 21.561 69.9459C21.478 70.029 21.3655 70.0756 21.2481 70.0756Z" fill="white"/>
<path d="M23.3126 70.0756H22.7227C22.6054 70.0756 22.4928 70.0291 22.4099 69.9459C22.3269 69.8632 22.2803 69.7504 22.2803 69.6332V63.1446C22.2803 63.0273 22.3269 62.9146 22.4099 62.8318C22.4928 62.7487 22.6054 62.7021 22.7227 62.7021H23.3126C23.4299 62.7021 23.5424 62.7487 23.6254 62.8318C23.7084 62.9146 23.755 63.0273 23.755 63.1446V69.6332C23.755 69.7504 23.7084 69.8632 23.6254 69.9459C23.5424 70.0291 23.4299 70.0756 23.3126 70.0756Z" fill="white"/>
<path d="M19.1834 70.0758H18.5935C18.4762 70.0758 18.3637 70.0293 18.2807 69.9462C18.1977 69.8631 18.1511 69.7506 18.1511 69.6334V61.67C18.1511 61.5527 18.1977 61.44 18.2807 61.3572C18.3637 61.2741 18.4762 61.2275 18.5935 61.2275H19.1834C19.3008 61.2275 19.4133 61.2741 19.4963 61.3572C19.5792 61.44 19.6258 61.5527 19.6258 61.67V69.6334C19.6258 69.6913 19.6144 69.7489 19.5922 69.8027C19.5699 69.8562 19.5373 69.9051 19.4963 69.9462C19.4552 69.9872 19.4064 70.0199 19.3527 70.042C19.2991 70.0644 19.2415 70.0758 19.1834 70.0758Z" fill="white"/>
<path d="M69.3327 30.1007L68.9113 29.6791C68.8148 29.5826 68.6841 29.5282 68.5475 29.5278C68.411 29.5275 68.2796 29.5812 68.1827 29.6772L65.2527 32.3813C65.1451 32.4765 65.0792 32.6102 65.0696 32.7535C65.0665 32.8247 65.0779 32.8957 65.1034 32.9622C65.1292 33.0287 65.1682 33.0891 65.2182 33.1399L65.8475 33.7763L65.8489 33.7775C65.9461 33.8744 66.0775 33.929 66.2151 33.9295H66.2341C66.3051 33.9255 66.3748 33.9075 66.4389 33.8766C66.503 33.8457 66.5606 33.8024 66.6079 33.7492L69.331 30.8326C69.4282 30.7361 69.4834 30.605 69.4837 30.468C69.4844 30.331 69.4306 30.1994 69.3341 30.1021L69.3327 30.1007Z" fill="white"/>
<path d="M72.72 29.2485L72.7148 29.2435L72.1617 28.6961C72.1293 28.6638 72.0907 28.6382 72.0486 28.6209C72.0062 28.6035 71.9607 28.5947 71.9151 28.595C71.841 28.5951 71.7686 28.6185 71.7086 28.6618C71.7086 28.6549 71.7096 28.6481 71.71 28.6421C71.7324 28.5008 71.7024 28.3561 71.6262 28.2351C71.5041 28.0708 71.3703 27.9158 71.2258 27.7712L71.2244 27.7699C70.8203 27.3819 70.3451 27.0754 69.8248 26.867C69.5531 26.7554 69.262 26.6981 68.9679 26.6983C68.5876 26.6949 68.2179 26.8243 67.9231 27.0644C67.8389 27.1446 67.7624 27.2322 67.6941 27.3262C67.6613 27.3712 67.6441 27.4256 67.6448 27.4812C67.6458 27.5368 67.6645 27.5906 67.6982 27.6348C67.732 27.6789 67.7793 27.711 67.8327 27.7261C67.8862 27.7413 67.9431 27.7388 67.9951 27.7191C68.0403 27.7021 68.0865 27.688 68.1334 27.6766C68.2313 27.6559 68.3317 27.6497 68.4313 27.658C68.6379 27.6796 68.8358 27.7522 69.0076 27.8693C69.1038 27.9503 69.18 28.0521 69.231 28.167C69.2824 28.2819 69.3065 28.4069 69.302 28.5325C69.2303 28.7367 69.121 28.9255 68.9793 29.0891C68.9417 29.1389 68.9231 29.2006 68.9276 29.263C68.9317 29.3253 68.9586 29.3839 69.0027 29.428L69.5582 29.9834C69.6048 30.0302 69.6676 30.0573 69.7338 30.0592C69.7996 30.0611 69.8641 30.0375 69.9134 29.9934C70.0703 29.8532 70.3096 29.6418 70.3931 29.5899C70.4644 29.5421 70.5455 29.5102 70.6303 29.4963C70.6938 29.4901 70.7572 29.5035 70.8127 29.5347C70.8127 29.5375 70.8127 29.5403 70.8117 29.5429C70.811 29.5455 70.8096 29.548 70.8076 29.5501L70.7782 29.578L70.7734 29.5825C70.7082 29.6475 70.6713 29.7358 70.6713 29.8279C70.671 29.92 70.7076 30.0085 70.7724 30.0737L70.7741 30.0754L71.3272 30.6228C71.3596 30.6551 71.3979 30.6806 71.4403 30.6979C71.4827 30.7152 71.5282 30.724 71.5738 30.7236C71.6655 30.7238 71.7538 30.6879 71.8196 30.6236L72.7151 29.7388C72.7182 29.7357 72.7213 29.7324 72.7244 29.7292C72.7844 29.6633 72.8172 29.5772 72.8165 29.488C72.8158 29.3988 72.781 29.3133 72.72 29.2485Z" fill="white"/>
<path d="M9.43401 29.829C9.37008 29.829 9.30763 29.81 9.25446 29.7745C9.20132 29.739 9.15991 29.6885 9.13546 29.6295C9.11101 29.5704 9.1046 29.5054 9.11708 29.4428C9.12953 29.3801 9.16032 29.3225 9.20549 29.2773L9.94646 28.5363L9.20549 27.7953C9.14491 27.7347 9.11084 27.6525 9.11084 27.5668C9.11084 27.4811 9.14491 27.3989 9.20549 27.3383C9.26612 27.2777 9.34829 27.2437 9.43401 27.2437C9.5197 27.2437 9.60191 27.2777 9.66253 27.3383L10.632 28.3078C10.662 28.3378 10.6858 28.3734 10.7021 28.4127C10.7183 28.4519 10.7267 28.4939 10.7267 28.5363C10.7267 28.5788 10.7183 28.6208 10.7021 28.66C10.6858 28.6992 10.662 28.7348 10.632 28.7648L9.66253 29.7343C9.63253 29.7643 9.59694 29.7882 9.5577 29.8044C9.51849 29.8207 9.47646 29.829 9.43401 29.829Z" fill="white"/>
<path d="M4.2636 30.7987C4.22119 30.7987 4.17915 30.7903 4.13995 30.7741C4.10074 30.7579 4.06512 30.7341 4.03508 30.7041C4.00508 30.674 3.98129 30.6384 3.96505 30.5992C3.94881 30.56 3.94043 30.518 3.94043 30.4755V30.1524C3.94298 29.6391 4.14795 29.1475 4.51081 28.7844C4.87371 28.4214 5.36515 28.2162 5.87846 28.2134H10.0806C10.1663 28.2134 10.2485 28.2474 10.3091 28.308C10.3697 28.3687 10.4037 28.4508 10.4037 28.5366C10.4037 28.6223 10.3697 28.7044 10.3091 28.7651C10.2485 28.8257 10.1663 28.8597 10.0806 28.8597H5.87943C5.53705 28.8618 5.20929 28.9987 4.96729 29.2409C4.72529 29.4831 4.58853 29.811 4.58677 30.1533V30.4755C4.58677 30.518 4.57843 30.56 4.56219 30.5992C4.54595 30.6384 4.52212 30.674 4.49212 30.704C4.46212 30.7341 4.4265 30.7579 4.38729 30.7741C4.34808 30.7903 4.30605 30.7987 4.2636 30.7987Z" fill="white"/>
<path d="M6.84881 33.3839C6.80636 33.384 6.76432 33.3756 6.72512 33.3594C6.68591 33.3431 6.65029 33.3193 6.62032 33.2892L5.65081 32.3198C5.62081 32.2898 5.59701 32.2541 5.58077 32.2149C5.56453 32.1757 5.55615 32.1337 5.55615 32.0913C5.55615 32.0488 5.56453 32.0068 5.58077 31.9676C5.59701 31.9284 5.62081 31.8928 5.65081 31.8628L6.62032 30.8933C6.68094 30.8328 6.76308 30.7988 6.84874 30.7988C6.93439 30.7989 7.01653 30.8329 7.07712 30.8935C7.13767 30.954 7.1717 31.0362 7.17177 31.1218C7.17181 31.2075 7.13784 31.2897 7.07732 31.3503L6.33636 32.0913L7.07732 32.8322C7.1225 32.8774 7.15329 32.935 7.16577 32.9977C7.17822 33.0604 7.17184 33.1254 7.14736 33.1844C7.12291 33.2435 7.0815 33.2939 7.02836 33.3294C6.97522 33.365 6.91274 33.3839 6.84881 33.3839Z" fill="white"/>
<path d="M6.20257 32.4149C6.11684 32.4149 6.03464 32.3808 5.97405 32.3202C5.91343 32.2596 5.87939 32.1774 5.87939 32.0917C5.87939 32.006 5.91343 31.9238 5.97405 31.8632C6.03464 31.8026 6.11684 31.7686 6.20257 31.7686H10.4037C10.746 31.7665 11.0738 31.6296 11.3158 31.3874C11.5578 31.1452 11.6946 30.8173 11.6963 30.4749V30.1528C11.6963 30.067 11.7304 29.9848 11.791 29.9242C11.8516 29.8636 11.9338 29.8296 12.0195 29.8296C12.1052 29.8296 12.1874 29.8636 12.248 29.9242C12.3086 29.9848 12.3427 30.067 12.3427 30.1528V30.4759C12.3401 30.9892 12.1352 31.4808 11.7723 31.8438C11.4094 32.2069 10.9179 32.4121 10.4046 32.4149H6.20257Z" fill="white"/>
</g>
<defs>
<clipPath id="clip0_1318_3755">
<rect width="120" height="86.2069" fill="white"/>
</clipPath>
</defs>
</svg>
