<svg width="170" height="31" viewBox="0 0 170 31" fill="none" xmlns="http://www.w3.org/2000/svg">
<g clip-path="url(#clip0_1289_100045)">
<path d="M52.2276 10.3702C53.3085 10.6477 54.119 11.2423 54.5822 12.1143C55.0841 12.9864 55.3157 14.3341 55.3157 16.1576C55.3157 17.8224 55.1227 19.0909 54.7752 19.963C54.3892 20.8748 53.6558 21.5486 52.4978 21.9846C51.3398 22.4207 49.6027 22.6584 47.2866 22.6584H41.6509V9.93413H47.2866C49.4869 9.93413 51.1467 10.0927 52.2276 10.3702ZM49.4482 19.3684C49.9115 19.0909 50.2203 18.6549 50.3747 18.1396C50.5291 17.6243 50.5677 16.8711 50.5677 15.8802C50.5677 15.0873 50.4905 14.4927 50.3361 14.0963C50.1818 13.6999 49.8728 13.3828 49.4096 13.1846C48.9464 12.9864 48.2516 12.9072 47.2866 12.9072H46.2829V19.8044H47.2866C48.2516 19.8044 48.9465 19.6459 49.4482 19.3684Z" fill="#1F17BF"/>
<path d="M66.5874 12.9072V14.8891H72.1455V17.7828H66.5874V19.7648H73.6897V22.6981H61.9551V9.93413H73.6897V12.8674H66.5874V12.9072Z" fill="#1F17BF"/>
<path d="M78.7853 9.93413H83.6491L86.0038 19.7648H86.9687L89.3234 9.93413H94.1872L90.5199 22.7378H82.4527L78.7853 9.93413Z" fill="#1F17BF"/>
<path d="M102.487 22.1829C101.483 21.6676 100.827 20.954 100.479 20.0027C100.132 19.0513 99.9386 17.7828 99.9386 16.1972C99.9386 14.6117 100.132 13.3432 100.479 12.3919C100.827 11.4405 101.521 10.6873 102.448 10.172C103.413 9.65675 104.803 9.41888 106.578 9.41888C107.968 9.41888 109.589 9.57741 111.443 9.85494L111.365 11.0838C109.628 10.8459 108.122 10.727 106.849 10.727C105.498 10.727 104.494 10.8856 103.799 11.2423C103.105 11.5991 102.641 12.154 102.37 12.9468C102.101 13.7396 101.985 14.8891 101.985 16.3558C101.985 17.6639 102.101 18.655 102.332 19.4081C102.564 20.1612 103.027 20.6766 103.76 21.073C104.494 21.4297 105.575 21.6279 107.042 21.6279C108.238 21.6279 109.666 21.5089 111.326 21.2712L111.403 22.5397C109.628 22.8171 108.045 22.936 106.694 22.936C104.88 22.936 103.491 22.6585 102.487 22.1829Z" fill="#1F17BF"/>
<path d="M120.012 21.9449C118.969 21.2711 118.467 20.2008 118.467 18.7738V9.57739H120.475V18.7738C120.475 20.6764 121.864 21.6279 124.682 21.6279C126.149 21.6279 127.269 21.39 127.964 20.9539C128.696 20.4782 129.044 19.7648 129.044 18.7738V9.57739H131.013V18.7341C131.013 20.1612 130.472 21.2314 129.43 21.9053C128.387 22.5792 126.805 22.8963 124.682 22.8963C122.636 22.936 121.054 22.5792 120.012 21.9449Z" fill="#1F17BF"/>
<path d="M139.196 9.57739H145.72C147.534 9.57739 148.885 9.85486 149.735 10.4098C150.622 10.9648 151.047 11.8369 151.047 12.9864C151.047 13.7792 150.853 14.3738 150.467 14.8494C150.082 15.3252 149.502 15.6819 148.731 15.9594C149.696 16.1972 150.429 16.5936 150.893 17.1089C151.355 17.6242 151.588 18.2982 151.588 19.1702C151.588 20.399 151.124 21.3107 150.159 21.9053C149.233 22.4999 147.843 22.7774 146.029 22.7774H139.196V9.57739ZM145.836 15.4044C146.916 15.4044 147.727 15.2062 148.229 14.8098C148.731 14.4134 149.001 13.8585 149.001 13.0657C149.001 12.2728 148.731 11.7179 148.19 11.3612C147.651 11.0043 146.801 10.8459 145.605 10.8459H141.165V15.4044H145.836ZM145.99 21.4297C147.148 21.4297 148.075 21.2314 148.693 20.8747C149.31 20.518 149.619 19.9233 149.619 19.0909C149.619 18.2188 149.271 17.5846 148.615 17.2279C147.959 16.8711 147.033 16.6729 145.874 16.6729H141.242V21.4297H145.99Z" fill="#1F17BF"/>
<path d="M161.083 10.8459V15.4044H168.456V16.6729H161.083V21.4297H170V22.7378H159.076V9.57739H170V10.8855H161.083V10.8459Z" fill="#1F17BF"/>
<path d="M26.7892 10.3703L11.3873 13.0657C11.0786 13.1054 10.7697 12.9864 10.6154 12.7089L6.94825 6.32698C6.678 5.89094 6.90964 5.33599 7.41147 5.17743L22.273 0.539592C22.6203 0.420672 23.0064 0.579231 23.1608 0.935988L27.3297 9.26031C27.5999 9.69638 27.3297 10.2909 26.7892 10.3703Z" fill="#F27407"/>
<path d="M6.06036 9.81526L16.4441 21.8261C16.6371 22.0639 16.7143 22.4207 16.5599 22.6981L13.2015 29.3576C12.9314 29.8333 12.3523 29.9522 11.9664 29.6351L0.270163 19.0909C-4.54942e-05 18.8532 -0.0772479 18.417 0.115759 18.1L4.82511 9.93419C5.05672 9.45853 5.71294 9.41886 6.06036 9.81526Z" fill="#F27407"/>
<path d="M7.64301 16.8315L11.9278 8.30894C12.1594 7.87294 11.7734 7.35761 11.3102 7.47654L5.48138 8.98281C5.36557 9.02247 5.28837 9.06207 5.24976 9.18101L0.115798 18.1396C-0.0386078 18.417 0.193 18.7738 0.50181 18.7341L6.52361 17.7036C6.98683 17.5846 7.41144 17.3071 7.64301 16.8315Z" fill="url(#paint0_linear_1289_100045)"/>
<path d="M16.1739 28.2081L21.8097 13.2242C21.9256 12.9072 22.1958 12.709 22.5432 12.709H29.8388C30.3406 12.709 30.7266 13.1846 30.5722 13.7L26.8279 29.2388C26.7506 29.5954 26.4033 29.8729 26.0172 29.8334L16.7916 29.2784C16.3283 29.2388 15.9809 28.7234 16.1739 28.2081Z" fill="#F27407"/>
<path d="M21.5396 23.5306H12.0436C11.619 23.5306 11.3875 24.046 11.6577 24.363L15.7107 29.0802C15.788 29.1594 15.8652 29.199 15.981 29.199L26.0559 29.7937C26.3648 29.7937 26.5964 29.437 26.4034 29.1594L22.7362 24.1252C22.466 23.7684 22.0027 23.5306 21.5396 23.5306Z" fill="url(#paint1_linear_1289_100045)"/>
<path d="M20.1885 8.07113L24.7435 15.999C25.0523 16.5143 25.8244 16.4351 26.0174 15.8405L27.7158 10.4099C27.793 10.2117 27.7544 10.0135 27.6772 9.85493L23.3924 1.37203C23.1223 0.817069 22.3502 0.856708 22.1187 1.41167L20.0727 6.52518C19.8798 7.04049 19.9184 7.59547 20.1885 8.07113Z" fill="url(#paint2_linear_1289_100045)"/>
</g>
<defs>
<linearGradient id="paint0_linear_1289_100045" x1="4.93201" y1="19.5422" x2="7.25525" y2="6.71168" gradientUnits="userSpaceOnUse">
<stop stop-color="#04005E"/>
<stop offset="0.281" stop-color="#0E0983"/>
<stop offset="0.5805" stop-color="#1711A4"/>
<stop offset="0.831" stop-color="#1D15B8"/>
<stop offset="1" stop-color="#1F17BF"/>
</linearGradient>
<linearGradient id="paint1_linear_1289_100045" x1="11.5328" y1="26.6706" x2="26.4882" y2="26.6706" gradientUnits="userSpaceOnUse">
<stop stop-color="#04005E"/>
<stop offset="0.0388729" stop-color="#060266"/>
<stop offset="0.2107" stop-color="#0F0A86"/>
<stop offset="0.389" stop-color="#160F9F"/>
<stop offset="0.5745" stop-color="#1B14B1"/>
<stop offset="0.7715" stop-color="#1E16BC"/>
<stop offset="1" stop-color="#1F17BF"/>
</linearGradient>
<linearGradient id="paint2_linear_1289_100045" x1="20.2937" y1="9.3536" x2="27.4142" y2="8.13099" gradientUnits="userSpaceOnUse">
<stop stop-color="#04005E"/>
<stop offset="0.1448" stop-color="#0B0676"/>
<stop offset="0.3775" stop-color="#130D96"/>
<stop offset="0.6027" stop-color="#1A13AC"/>
<stop offset="0.8147" stop-color="#1E16BA"/>
<stop offset="1" stop-color="#1F17BF"/>
</linearGradient>
<clipPath id="clip0_1289_100045">
<rect width="170" height="30" fill="white" transform="translate(0 0.5)"/>
</clipPath>
</defs>
</svg>
