<svg width="40" height="35" viewBox="0 0 40 35" fill="none" xmlns="http://www.w3.org/2000/svg">
<path d="M36.018 6.47206H27.399V2.99899C27.399 1.3453 26.0536 0 24.3999 0H15.6C13.9463 0 12.6009 1.3453 12.6009 2.99899V6.47206H3.98199C1.78627 6.47206 0 8.2584 0 10.454V30.8207C0 33.0163 1.78627 34.8026 3.98199 34.8026H36.018C38.2137 34.8026 40 33.0163 40 30.8207V10.454C40 8.2584 38.2137 6.47206 36.018 6.47206ZM15.1412 2.99899C15.1412 2.746 15.347 2.54024 15.6 2.54024H24.3999C24.6529 2.54024 24.8587 2.74608 24.8587 2.99899V6.47206H15.1412V2.99899ZM2.54024 10.454C2.54024 9.65903 3.18697 9.0123 3.98199 9.0123H36.018C36.8129 9.0123 37.4598 9.65903 37.4598 10.454V12.3339C37.4598 14.0972 36.2774 15.6728 34.5845 16.1657L21.3002 20.0335C20.4497 20.2812 19.5504 20.2812 18.6997 20.0335L5.41548 16.1656C3.72257 15.6727 2.54024 14.0972 2.54024 12.3339V10.454ZM36.018 32.2624H3.98199C3.18705 32.2624 2.54024 31.6157 2.54024 30.8208V17.5056C3.1803 18.0003 3.90991 18.373 4.70532 18.6047C19.3799 22.8772 18.6257 22.7596 20 22.7596C21.3924 22.7596 20.6029 22.8822 35.2946 18.6047C36.0901 18.373 36.8197 18.0003 37.4597 17.5056V30.8207C37.4598 31.6156 36.8129 32.2624 36.018 32.2624Z" fill="#F27407"/>
</svg>
