<svg width="12" height="10" viewBox="0 0 12 10" fill="none" xmlns="http://www.w3.org/2000/svg">
<path d="M7.5621 0.198869L11.8047 4.51989C12.0651 4.78505 12.0651 5.21495 11.8047 5.48011L7.5621 9.80113C7.30175 10.0663 6.87964 10.0663 6.61929 9.80113C6.35894 9.53597 6.35894 9.10606 6.61929 8.8409L9.72386 5.67898L0.666666 5.67898C0.298476 5.67898 -2.34948e-07 5.37499 -2.18557e-07 5C-2.02166e-07 4.62501 0.298476 4.32102 0.666666 4.32102L9.72386 4.32102L6.61929 1.1591C6.35894 0.893936 6.35894 0.464029 6.61929 0.198869C6.87964 -0.0662899 7.30175 -0.0662901 7.5621 0.198869Z" fill="#3E74FF"/>
</svg>
