<svg width="145" height="43" viewBox="0 0 145 43" fill="none" xmlns="http://www.w3.org/2000/svg">
<path d="M13.328 24.1699C9.54999 24.1699 6.37832 23.0411 3.813 20.7834C1.271 18.5037 0 15.6042 0 12.0849C0 8.54356 1.28266 5.64406 3.84798 3.38644C6.38998 1.12881 9.63161 0 13.5729 0C16.1149 0 18.4936 0.55334 20.7091 1.66002V7.27088C18.447 6.0978 16.2198 5.51126 14.0276 5.51126C11.8121 5.51126 9.99309 6.131 8.5705 7.37048C7.17124 8.60996 6.4716 10.2146 6.4716 12.1845C6.4716 14.243 7.13626 15.8698 8.46556 17.065C9.79486 18.2602 11.4157 18.8578 13.328 18.8578C14.9605 18.8578 16.2548 18.4926 17.211 17.7622V10.1593H23.5426V20.4846C22.5632 21.5028 21.1522 22.377 19.3099 23.1075C17.4209 23.8157 15.4269 24.1699 13.328 24.1699Z" fill="white"/>
<path d="M39.7285 16.9986H28.4294V11.8193H39.7285V16.9986Z" fill="white"/>
<path d="M58.2581 24.1699C54.3402 24.1699 51.0869 23.0411 48.4982 20.7834C45.9096 18.5258 44.6153 15.6263 44.6153 12.0849C44.6153 8.54356 45.8979 5.64406 48.4632 3.38644C51.0519 1.12881 54.3052 0 58.2231 0C60.5552 0 62.6658 0.442672 64.5548 1.32802V7.20448C62.6425 6.07567 60.5552 5.51126 58.2931 5.51126C56.2408 5.51126 54.5267 6.131 53.1508 7.37048C51.7748 8.60996 51.0869 10.1814 51.0869 12.0849C51.0869 14.0327 51.7865 15.6152 53.1858 16.8326C54.6083 18.0499 56.3924 18.6586 58.538 18.6586C61.1033 18.6586 63.2488 18.0389 64.9746 16.7994V22.7091C62.969 23.6829 60.7301 24.1699 58.2581 24.1699Z" fill="white"/>
<path d="M73.5407 23.7051H66.8942L77.1788 0.332003H83.2306L93.5152 23.7051H86.7638L84.6998 18.7914H75.6046L73.5407 23.7051ZM80.1522 7.80209L77.5986 14.0106H82.7059L80.1522 7.80209Z" fill="white"/>
<path d="M102.514 23.7051H96.2176V0.464805H107.727C110.432 0.464805 112.566 1.13988 114.128 2.49003C115.737 3.81804 116.542 5.53339 116.542 7.63609C116.542 9.14117 116.122 10.4692 115.283 11.6201C114.443 12.7711 113.277 13.6232 111.784 14.1766L119.2 23.7051H111.959L105.033 14.8406H102.514V23.7051ZM102.514 5.51126V9.96011H107.377C108.24 9.96011 108.916 9.77198 109.406 9.39571C109.919 8.9973 110.175 8.45503 110.175 7.76889C110.175 7.08275 109.919 6.54047 109.406 6.14207C108.916 5.72153 108.24 5.51126 107.377 5.51126H102.514Z" fill="white"/>
<path d="M131.462 23.7051H121.702V0.464805H131.462C135.427 0.464805 138.68 1.54935 141.222 3.71844C143.741 5.88753 145 8.67636 145 12.0849C145 15.5378 143.741 18.3377 141.222 20.4846C138.727 22.6316 135.473 23.7051 131.462 23.7051ZM127.999 5.71046V18.4594H131.007C133.386 18.4594 135.228 17.9061 136.534 16.7994C137.84 15.6927 138.493 14.1212 138.493 12.0849C138.493 10.0486 137.84 8.47716 136.534 7.37048C135.228 6.2638 133.386 5.71046 131.007 5.71046H127.999Z" fill="white"/>
<path d="M48.7352 39.6138H47.4758V31.5959H48.7352V39.6138ZM47.4758 29.4379C47.3126 29.2719 47.231 29.0727 47.231 28.8403C47.231 28.6079 47.3126 28.4087 47.4758 28.2427C47.6507 28.0767 47.8606 27.9937 48.1055 27.9937C48.3504 27.9937 48.5603 28.0767 48.7352 28.2427C48.9101 28.4087 48.9975 28.6079 48.9975 28.8403C48.9975 29.0727 48.9101 29.2719 48.7352 29.4379C48.5603 29.5928 48.3504 29.6703 48.1055 29.6703C47.8606 29.6703 47.6507 29.5928 47.4758 29.4379Z" fill="white"/>
<path d="M51.7895 34.2021V39.6138H50.5302V31.5959H51.7895V32.8243C52.6874 31.8726 53.8126 31.3967 55.1652 31.3967C56.203 31.3967 56.9959 31.69 57.544 32.2765C58.1037 32.852 58.3835 33.6709 58.3835 34.7333V39.6138H57.1242V34.9989C57.1242 33.35 56.3255 32.5255 54.728 32.5255C54.1449 32.5255 53.5794 32.697 53.0313 33.0401C52.4716 33.3832 52.0577 33.7705 51.7895 34.2021Z" fill="white"/>
<path d="M62.6749 39.813C61.9986 39.813 61.334 39.7355 60.681 39.5806C60.0397 39.4146 59.5383 39.2154 59.1768 38.983V37.7546C60.2029 38.4075 61.3573 38.734 62.64 38.734C63.3629 38.734 63.9284 38.6233 64.3366 38.402C64.7563 38.1696 64.9662 37.8542 64.9662 37.4558C64.9662 37.1127 64.768 36.8305 64.3715 36.6091C64.2549 36.5206 63.9576 36.421 63.4795 36.3103C63.3396 36.2661 63.1472 36.2218 62.9023 36.1775C62.5875 36.1001 62.3951 36.0558 62.3251 36.0447C61.264 35.7902 60.5061 35.4914 60.0513 35.1483C59.5966 34.7942 59.3692 34.2851 59.3692 33.6211C59.3692 32.9239 59.6665 32.3816 60.2612 31.9943C60.8559 31.5959 61.6896 31.3967 62.7624 31.3967C64.0334 31.3967 65.0595 31.6346 65.8408 32.1105V33.2891C64.8846 32.7468 63.876 32.4757 62.8149 32.4757C62.1036 32.4757 61.5614 32.5808 61.1882 32.7911C60.8267 33.0014 60.646 33.2891 60.646 33.6543C60.646 34.0527 60.8617 34.3515 61.2932 34.5507C61.3748 34.5729 61.4739 34.6116 61.5905 34.6669C61.7188 34.7112 61.847 34.7499 61.9753 34.7831L62.3601 34.8827C62.64 34.9713 62.9198 35.0321 63.1997 35.0653C64.2491 35.3088 65.0187 35.6076 65.5084 35.9617C66.0099 36.3159 66.2606 36.8194 66.2606 37.4724C66.2606 38.2028 65.9224 38.7727 65.2461 39.1822C64.5698 39.6027 63.7127 39.813 62.6749 39.813Z" fill="white"/>
<path d="M68.5657 38.3356V42.9338H67.3063V31.5959H68.5657V32.8741C69.3586 31.8892 70.4488 31.3967 71.8364 31.3967C73.0841 31.3967 74.1044 31.8062 74.8973 32.6251C75.6902 33.444 76.0867 34.4345 76.0867 35.5965C76.0867 36.7696 75.6902 37.7656 74.8973 38.5846C74.1044 39.4035 73.0841 39.813 71.8364 39.813C70.4488 39.813 69.3586 39.3205 68.5657 38.3356ZM68.5657 34.2851V36.9246C68.8105 37.4558 69.207 37.8929 69.755 38.236C70.3031 38.568 70.8978 38.734 71.5391 38.734C72.4836 38.734 73.259 38.4352 73.8654 37.8376C74.4834 37.2178 74.7924 36.4708 74.7924 35.5965C74.7924 34.7223 74.4834 33.9808 73.8654 33.3721C73.259 32.7745 72.4836 32.4757 71.5391 32.4757C70.9094 32.4757 70.3206 32.6472 69.7725 32.9903C69.2245 33.3223 68.8222 33.7539 68.5657 34.2851Z" fill="white"/>
<path d="M78.4784 39.6138H77.2191V31.5959H78.4784V39.6138ZM77.2191 29.4379C77.0558 29.2719 76.9742 29.0727 76.9742 28.8403C76.9742 28.6079 77.0558 28.4087 77.2191 28.2427C77.394 28.0767 77.6039 27.9937 77.8488 27.9937C78.0936 27.9937 78.3035 28.0767 78.4784 28.2427C78.6533 28.4087 78.7408 28.6079 78.7408 28.8403C78.7408 29.0727 78.6533 29.2719 78.4784 29.4379C78.3035 29.5928 78.0936 29.6703 77.8488 29.6703C77.6039 29.6703 77.394 29.5928 77.2191 29.4379Z" fill="white"/>
<path d="M81.5328 39.6138H80.2734V31.5959H81.5328V33.1231C81.8476 32.603 82.314 32.188 82.932 31.8781C83.55 31.5572 84.203 31.3967 84.891 31.3967V32.6085C84.5062 32.6085 84.1564 32.6583 83.8416 32.7579C83.3052 32.8907 82.8329 33.1231 82.4248 33.4551C82.0167 33.7761 81.7193 34.1413 81.5328 34.5507V39.6138Z" fill="white"/>
<path d="M89.3711 39.813C88.0535 39.813 86.9457 39.4201 86.0479 38.6344C85.1617 37.8597 84.7186 36.8526 84.7186 35.6131C84.7186 34.4179 85.115 33.4164 85.9079 32.6085C86.7125 31.8006 87.7445 31.3967 89.0038 31.3967C89.6801 31.3967 90.2806 31.5295 90.8054 31.7951C91.3301 32.0496 91.744 32.3872 92.0472 32.8077C92.3504 33.2282 92.5778 33.6764 92.7294 34.1523C92.8809 34.6171 92.9567 35.0875 92.9567 35.5633V35.8953H86.0129C86.0828 36.7586 86.4443 37.4502 87.0973 37.9704C87.762 38.4794 88.6015 38.734 89.616 38.734C90.5955 38.734 91.4992 38.485 92.3271 37.987V39.0494C91.6391 39.5584 90.6538 39.813 89.3711 39.813ZM86.0304 34.9159H91.6799C91.6449 34.2962 91.4001 33.7373 90.9453 33.2393C90.5139 32.7302 89.8492 32.4757 88.9513 32.4757C88.1118 32.4757 87.4238 32.7192 86.8874 33.2061C86.3627 33.7041 86.077 34.2741 86.0304 34.9159Z" fill="white"/>
<path d="M100.495 39.813C99.7133 39.813 99.1186 39.5972 98.7105 39.1656C98.3141 38.7229 98.1158 38.1142 98.1158 37.3396V32.6417H96.1219V31.5959H98.1158V29.1225H99.3752V31.5959H102.331V32.6417H99.3752V36.9744C99.3752 37.6162 99.486 38.0589 99.7075 38.3024C99.9407 38.5569 100.32 38.6842 100.844 38.6842C101.357 38.6842 101.818 38.5735 102.226 38.3522V39.4478C101.865 39.6912 101.288 39.813 100.495 39.813Z" fill="white"/>
<path d="M103.747 32.6417C104.598 31.8117 105.694 31.3967 107.035 31.3967C108.376 31.3967 109.472 31.8117 110.323 32.6417C111.174 33.4496 111.6 34.4401 111.6 35.6131C111.6 36.7862 111.174 37.7767 110.323 38.5846C109.46 39.4035 108.364 39.813 107.035 39.813C105.705 39.813 104.609 39.4035 103.747 38.5846C102.895 37.7767 102.47 36.7862 102.47 35.6131C102.47 34.4401 102.895 33.4496 103.747 32.6417ZM110.306 35.6131C110.306 34.7278 109.997 33.9808 109.379 33.3721C108.761 32.7745 107.979 32.4757 107.035 32.4757C106.09 32.4757 105.309 32.7745 104.691 33.3721C104.073 33.9808 103.764 34.7278 103.764 35.6131C103.764 36.4874 104.073 37.2289 104.691 37.8376C105.309 38.4352 106.09 38.734 107.035 38.734C107.979 38.734 108.761 38.4352 109.379 37.8376C109.997 37.2289 110.306 36.4874 110.306 35.6131Z" fill="white"/>
<path d="M115.759 39.6138V27.9937H117.018V32.8741C117.811 31.8892 118.901 31.3967 120.289 31.3967C121.536 31.3967 122.557 31.8062 123.35 32.6251C124.143 33.444 124.539 34.4401 124.539 35.6131C124.539 36.7752 124.143 37.7656 123.35 38.5846C122.557 39.4035 121.536 39.813 120.289 39.813C118.901 39.813 117.811 39.3205 117.018 38.3356V39.6138H115.759ZM117.018 34.2851V36.9246C117.274 37.4558 117.677 37.8929 118.225 38.236C118.773 38.568 119.362 38.734 119.991 38.734C120.936 38.734 121.711 38.4352 122.318 37.8376C122.936 37.2289 123.245 36.4874 123.245 35.6131C123.245 34.7389 122.936 33.9974 122.318 33.3887C121.711 32.78 120.936 32.4757 119.991 32.4757C119.35 32.4757 118.755 32.6472 118.207 32.9903C117.659 33.3223 117.263 33.7539 117.018 34.2851Z" fill="white"/>
<path d="M131.933 37.0076V31.5959H133.192V39.6138H131.933V38.3854C131.035 39.3371 129.91 39.813 128.557 39.813C127.52 39.813 126.721 39.5252 126.161 38.9498C125.613 38.3632 125.339 37.5388 125.339 36.4763V31.5959H126.598V36.2107C126.598 37.8597 127.397 38.6842 128.995 38.6842C129.578 38.6842 130.137 38.5182 130.674 38.1862C131.245 37.832 131.665 37.4392 131.933 37.0076Z" fill="white"/>
<path d="M135.245 43.0002C134.638 43.0002 134.189 42.9228 133.898 42.7678V41.6556C134.259 41.8327 134.644 41.9212 135.052 41.9212C135.565 41.9212 136.008 41.7165 136.382 41.307C136.755 40.9086 137.145 40.2446 137.553 39.315L133.793 31.5959H135.192L138.183 37.904L141.087 31.5959H142.451L138.271 40.5102C137.513 42.1702 136.504 43.0002 135.245 43.0002Z" fill="white"/>
</svg>
