<svg width="18" height="18" viewBox="0 0 18 18" fill="none" xmlns="http://www.w3.org/2000/svg">
<path fill-rule="evenodd" clip-rule="evenodd" d="M10.0319 5.64047L9.60067 8.00002H11.9993H13.6306C14.0408 8.00002 14.5862 8.22436 15.1035 8.93474C15.6195 9.6433 16 10.7206 16 12C16 13.2795 15.6195 14.3567 15.1035 15.0653C14.5862 15.7757 14.0408 16 13.6306 16H6.00001V7.91481L6.48336 6.78911L8.20189 2.78677C8.31439 2.61539 8.57049 2.39753 8.99786 2.27755C9.46791 2.1456 9.86607 2.21258 10.0681 2.32027C10.363 2.47746 10.4733 2.5964 10.5057 2.63689C10.5293 2.66637 10.5326 2.67768 10.5373 2.70122C10.5458 2.74402 10.5556 2.84279 10.5319 3.04007C10.507 3.24785 10.4583 3.47318 10.3842 3.80466L10.3812 3.81838C10.3434 3.9873 10.2978 4.19096 10.2594 4.39575L10.2593 4.39575L10.2576 4.4055L10.0319 5.64047ZM11.0089 0.555375C9.5208 -0.237904 7.22587 0.360655 6.40938 1.89231L4.64561 6.00002L4 6.00001H1C0.447715 6.00001 0 6.44773 0 7.00001V17C0 17.5523 0.447715 18 1 18L4.00001 18H6.00001H13.6306C16.0437 18 18 15.3137 18 12C18 8.87025 16.2549 6.30017 14.0279 6.02449C13.8971 6.00829 13.7645 6.00002 13.6306 6.00002H11.9993L12.225 4.76504C12.2571 4.59424 12.2962 4.41906 12.336 4.241L12.3361 4.24055C12.3539 4.1609 12.3719 4.08068 12.3894 4.00002C12.6481 2.80622 12.8091 1.51499 11.0089 0.555375ZM2 16V8.00001H4V16H2Z" fill="#3E74FF"/>
</svg>
