<svg width="145" height="43" viewBox="0 0 145 43" fill="none" xmlns="http://www.w3.org/2000/svg">
<path d="M13.328 24.1699C9.54999 24.1699 6.37832 23.0411 3.813 20.7834C1.271 18.5037 0 15.6042 0 12.0849C0 8.54356 1.28266 5.64406 3.84798 3.38644C6.38998 1.12881 9.63161 0 13.5729 0C16.1149 0 18.4936 0.55334 20.7091 1.66002V7.27088C18.447 6.0978 16.2198 5.51126 14.0276 5.51126C11.8121 5.51126 9.99309 6.131 8.5705 7.37048C7.17124 8.60996 6.4716 10.2146 6.4716 12.1845C6.4716 14.243 7.13626 15.8698 8.46556 17.065C9.79486 18.2602 11.4157 18.8578 13.328 18.8578C14.9605 18.8578 16.2548 18.4926 17.211 17.7622V10.1593H23.5426V20.4846C22.5632 21.5028 21.1522 22.377 19.3099 23.1075C17.4209 23.8157 15.4269 24.1699 13.328 24.1699Z" fill="#373A4A"/>
<path d="M39.7285 16.9986H28.4294V11.8193H39.7285V16.9986Z" fill="#373A4A"/>
<path d="M58.2581 24.1699C54.3402 24.1699 51.0869 23.0411 48.4982 20.7834C45.9096 18.5258 44.6153 15.6263 44.6153 12.0849C44.6153 8.54356 45.8979 5.64406 48.4632 3.38644C51.0519 1.12881 54.3052 0 58.2231 0C60.5552 0 62.6658 0.442672 64.5548 1.32802V7.20448C62.6425 6.07567 60.5552 5.51126 58.2931 5.51126C56.2408 5.51126 54.5267 6.131 53.1508 7.37048C51.7748 8.60996 51.0869 10.1814 51.0869 12.0849C51.0869 14.0327 51.7865 15.6152 53.1858 16.8326C54.6083 18.0499 56.3924 18.6586 58.538 18.6586C61.1033 18.6586 63.2488 18.0389 64.9746 16.7994V22.7091C62.969 23.6829 60.7301 24.1699 58.2581 24.1699Z" fill="#373A4A"/>
<path d="M73.5407 23.7051H66.8942L77.1788 0.332003H83.2306L93.5152 23.7051H86.7638L84.6998 18.7914H75.6046L73.5407 23.7051ZM80.1522 7.80209L77.5986 14.0106H82.7059L80.1522 7.80209Z" fill="#373A4A"/>
<path d="M102.514 23.7051H96.2176V0.464805H107.727C110.432 0.464805 112.566 1.13988 114.128 2.49003C115.737 3.81804 116.542 5.53339 116.542 7.63609C116.542 9.14117 116.122 10.4692 115.283 11.6201C114.443 12.7711 113.277 13.6232 111.784 14.1766L119.2 23.7051H111.959L105.033 14.8406H102.514V23.7051ZM102.514 5.51126V9.96011H107.377C108.24 9.96011 108.916 9.77198 109.406 9.39571C109.919 8.9973 110.175 8.45503 110.175 7.76889C110.175 7.08275 109.919 6.54047 109.406 6.14207C108.916 5.72153 108.24 5.51126 107.377 5.51126H102.514Z" fill="#373A4A"/>
<path d="M131.462 23.7051H121.702V0.464805H131.462C135.427 0.464805 138.68 1.54935 141.222 3.71844C143.741 5.88753 145 8.67636 145 12.0849C145 15.5378 143.741 18.3377 141.222 20.4846C138.727 22.6316 135.473 23.7051 131.462 23.7051ZM127.999 5.71046V18.4594H131.007C133.386 18.4594 135.228 17.9061 136.534 16.7994C137.84 15.6927 138.493 14.1212 138.493 12.0849C138.493 10.0486 137.84 8.47716 136.534 7.37048C135.228 6.2638 133.386 5.71046 131.007 5.71046H127.999Z" fill="#373A4A"/>
<path d="M48.7352 39.6136H47.4758V31.5957H48.7352V39.6136ZM47.4758 29.4376C47.3126 29.2716 47.231 29.0724 47.231 28.84C47.231 28.6076 47.3126 28.4084 47.4758 28.2424C47.6507 28.0764 47.8606 27.9934 48.1055 27.9934C48.3504 27.9934 48.5603 28.0764 48.7352 28.2424C48.9101 28.4084 48.9975 28.6076 48.9975 28.84C48.9975 29.0724 48.9101 29.2716 48.7352 29.4376C48.5603 29.5926 48.3504 29.67 48.1055 29.67C47.8606 29.67 47.6507 29.5926 47.4758 29.4376Z" fill="#373A4A"/>
<path d="M51.7895 34.2019V39.6136H50.5302V31.5957H51.7895V32.8241C52.6874 31.8723 53.8126 31.3965 55.1652 31.3965C56.203 31.3965 56.9959 31.6897 57.544 32.2763C58.1037 32.8517 58.3835 33.6707 58.3835 34.7331V39.6136H57.1242V34.9987C57.1242 33.3498 56.3255 32.5253 54.728 32.5253C54.1449 32.5253 53.5794 32.6968 53.0313 33.0399C52.4716 33.383 52.0577 33.7703 51.7895 34.2019Z" fill="#373A4A"/>
<path d="M62.6749 39.8128C61.9986 39.8128 61.334 39.7353 60.681 39.5804C60.0397 39.4144 59.5383 39.2151 59.1768 38.9827V37.7543C60.2029 38.4073 61.3573 38.7337 62.64 38.7337C63.3629 38.7337 63.9284 38.6231 64.3366 38.4017C64.7563 38.1693 64.9662 37.8539 64.9662 37.4555C64.9662 37.1125 64.768 36.8303 64.3715 36.6089C64.2549 36.5204 63.9576 36.4208 63.4795 36.3101C63.3396 36.2658 63.1472 36.2216 62.9023 36.1773C62.5875 36.0998 62.3951 36.0556 62.3251 36.0445C61.264 35.79 60.5061 35.4912 60.0513 35.1481C59.5966 34.794 59.3692 34.2849 59.3692 33.6209C59.3692 32.9237 59.6665 32.3814 60.2612 31.9941C60.8559 31.5957 61.6896 31.3965 62.7624 31.3965C64.0334 31.3965 65.0595 31.6344 65.8408 32.1103V33.2889C64.8846 32.7466 63.876 32.4755 62.8149 32.4755C62.1036 32.4755 61.5614 32.5806 61.1882 32.7909C60.8267 33.0011 60.646 33.2889 60.646 33.6541C60.646 34.0525 60.8617 34.3513 61.2932 34.5505C61.3748 34.5726 61.4739 34.6114 61.5905 34.6667C61.7188 34.711 61.847 34.7497 61.9753 34.7829L62.3601 34.8825C62.64 34.971 62.9198 35.0319 63.1997 35.0651C64.2491 35.3086 65.0187 35.6074 65.5084 35.9615C66.0099 36.3156 66.2606 36.8192 66.2606 37.4721C66.2606 38.2025 65.9224 38.7725 65.2461 39.1819C64.5698 39.6025 63.7127 39.8128 62.6749 39.8128Z" fill="#373A4A"/>
<path d="M68.5657 38.3353V42.9336H67.3063V31.5957H68.5657V32.8739C69.3586 31.8889 70.4488 31.3965 71.8364 31.3965C73.0841 31.3965 74.1044 31.8059 74.8973 32.6249C75.6902 33.4438 76.0867 34.4343 76.0867 35.5963C76.0867 36.7694 75.6902 37.7654 74.8973 38.5843C74.1044 39.4033 73.0841 39.8128 71.8364 39.8128C70.4488 39.8128 69.3586 39.3203 68.5657 38.3353ZM68.5657 34.2849V36.9243C68.8105 37.4555 69.207 37.8927 69.755 38.2357C70.3031 38.5677 70.8978 38.7337 71.5391 38.7337C72.4836 38.7337 73.259 38.4349 73.8654 37.8373C74.4834 37.2176 74.7924 36.4706 74.7924 35.5963C74.7924 34.722 74.4834 33.9806 73.8654 33.3719C73.259 32.7743 72.4836 32.4755 71.5391 32.4755C70.9094 32.4755 70.3206 32.647 69.7725 32.9901C69.2245 33.3221 68.8222 33.7537 68.5657 34.2849Z" fill="#373A4A"/>
<path d="M78.4784 39.6136H77.2191V31.5957H78.4784V39.6136ZM77.2191 29.4376C77.0558 29.2716 76.9742 29.0724 76.9742 28.84C76.9742 28.6076 77.0558 28.4084 77.2191 28.2424C77.394 28.0764 77.6039 27.9934 77.8488 27.9934C78.0936 27.9934 78.3035 28.0764 78.4784 28.2424C78.6533 28.4084 78.7408 28.6076 78.7408 28.84C78.7408 29.0724 78.6533 29.2716 78.4784 29.4376C78.3035 29.5926 78.0936 29.67 77.8488 29.67C77.6039 29.67 77.394 29.5926 77.2191 29.4376Z" fill="#373A4A"/>
<path d="M81.5328 39.6136H80.2734V31.5957H81.5328V33.1229C81.8476 32.6027 82.314 32.1877 82.932 31.8779C83.55 31.5569 84.203 31.3965 84.891 31.3965V32.6083C84.5062 32.6083 84.1564 32.6581 83.8416 32.7577C83.3052 32.8905 82.8329 33.1229 82.4248 33.4549C82.0167 33.7758 81.7193 34.141 81.5328 34.5505V39.6136Z" fill="#373A4A"/>
<path d="M89.3711 39.8128C88.0535 39.8128 86.9457 39.4199 86.0479 38.6341C85.1617 37.8595 84.7186 36.8524 84.7186 35.6129C84.7186 34.4177 85.115 33.4162 85.9079 32.6083C86.7125 31.8004 87.7445 31.3965 89.0038 31.3965C89.6801 31.3965 90.2806 31.5293 90.8054 31.7949C91.3301 32.0494 91.744 32.3869 92.0472 32.8075C92.3504 33.228 92.5778 33.6762 92.7294 34.1521C92.8809 34.6169 92.9567 35.0872 92.9567 35.5631V35.8951H86.0129C86.0828 36.7583 86.4443 37.45 87.0973 37.9701C87.762 38.4792 88.6015 38.7337 89.616 38.7337C90.5955 38.7337 91.4992 38.4847 92.3271 37.9867V39.0491C91.6391 39.5582 90.6538 39.8128 89.3711 39.8128ZM86.0304 34.9157H91.6799C91.6449 34.296 91.4001 33.7371 90.9453 33.2391C90.5139 32.73 89.8492 32.4755 88.9513 32.4755C88.1118 32.4755 87.4238 32.7189 86.8874 33.2059C86.3627 33.7039 86.077 34.2738 86.0304 34.9157Z" fill="#373A4A"/>
<path d="M100.495 39.8128C99.7133 39.8128 99.1186 39.597 98.7105 39.1653C98.3141 38.7227 98.1158 38.114 98.1158 37.3393V32.6415H96.1219V31.5957H98.1158V29.1222H99.3752V31.5957H102.331V32.6415H99.3752V36.9741C99.3752 37.616 99.486 38.0587 99.7075 38.3021C99.9407 38.5567 100.32 38.6839 100.844 38.6839C101.357 38.6839 101.818 38.5733 102.226 38.3519V39.4476C101.865 39.691 101.288 39.8128 100.495 39.8128Z" fill="#373A4A"/>
<path d="M103.747 32.6415C104.598 31.8115 105.694 31.3965 107.035 31.3965C108.376 31.3965 109.472 31.8115 110.323 32.6415C111.174 33.4494 111.6 34.4398 111.6 35.6129C111.6 36.786 111.174 37.7765 110.323 38.5843C109.46 39.4033 108.364 39.8128 107.035 39.8128C105.705 39.8128 104.609 39.4033 103.747 38.5843C102.895 37.7765 102.47 36.786 102.47 35.6129C102.47 34.4398 102.895 33.4494 103.747 32.6415ZM110.306 35.6129C110.306 34.7276 109.997 33.9806 109.379 33.3719C108.761 32.7743 107.979 32.4755 107.035 32.4755C106.09 32.4755 105.309 32.7743 104.691 33.3719C104.073 33.9806 103.764 34.7276 103.764 35.6129C103.764 36.4872 104.073 37.2287 104.691 37.8373C105.309 38.4349 106.09 38.7337 107.035 38.7337C107.979 38.7337 108.761 38.4349 109.379 37.8373C109.997 37.2287 110.306 36.4872 110.306 35.6129Z" fill="#373A4A"/>
<path d="M115.759 39.6136V27.9934H117.018V32.8739C117.811 31.8889 118.901 31.3965 120.289 31.3965C121.536 31.3965 122.557 31.8059 123.35 32.6249C124.143 33.4438 124.539 34.4398 124.539 35.6129C124.539 36.7749 124.143 37.7654 123.35 38.5843C122.557 39.4033 121.536 39.8128 120.289 39.8128C118.901 39.8128 117.811 39.3203 117.018 38.3353V39.6136H115.759ZM117.018 34.2849V36.9243C117.274 37.4555 117.677 37.8927 118.225 38.2357C118.773 38.5677 119.362 38.7337 119.991 38.7337C120.936 38.7337 121.711 38.4349 122.318 37.8373C122.936 37.2287 123.245 36.4872 123.245 35.6129C123.245 34.7386 122.936 33.9972 122.318 33.3885C121.711 32.7798 120.936 32.4755 119.991 32.4755C119.35 32.4755 118.755 32.647 118.207 32.9901C117.659 33.3221 117.263 33.7537 117.018 34.2849Z" fill="#373A4A"/>
<path d="M131.933 37.0073V31.5957H133.192V39.6136H131.933V38.3851C131.035 39.3369 129.91 39.8128 128.557 39.8128C127.52 39.8128 126.721 39.525 126.161 38.9495C125.613 38.363 125.339 37.5385 125.339 36.4761V31.5957H126.598V36.2105C126.598 37.8595 127.397 38.6839 128.995 38.6839C129.578 38.6839 130.137 38.5179 130.674 38.1859C131.245 37.8318 131.665 37.4389 131.933 37.0073Z" fill="#373A4A"/>
<path d="M135.245 43C134.638 43 134.189 42.9225 133.898 42.7676V41.6554C134.259 41.8324 134.644 41.921 135.052 41.921C135.565 41.921 136.008 41.7162 136.382 41.3068C136.755 40.9084 137.145 40.2444 137.553 39.3148L133.793 31.5957H135.192L138.183 37.9037L141.087 31.5957H142.451L138.271 40.51C137.513 42.17 136.504 43 135.245 43Z" fill="#373A4A"/>
</svg>
